  0
SECTION
  2
HEADER
  9
$ANGBASE
  50
0.0
  9
$ANGDIR
  70
1
  9
$MEASUREMENT
  70
1
  0
ENDSEC
  0
SECTION
  2
TABLES
  0
TABLE
  2
LTYPE
  70
4
  0
LTYPE
  5
40F
  2
CONTINUOUS
  70
0
  3
Solid line
  72
65
  73
0
  40
0.0
  0
LTYPE
  5
410
  2
DASHDOT
 70
0
  3
Dash Dot ____ _ ____ _
 72
65
 73
4
 40
2.0
 49
1.25
 49
-0.25
 49
0.25
 49
-0.25
  0
LTYPE
  5
411
  2
DASHED
 70
0
  3
Dashed __ __ __ __ __
 72
65
 73
2
 40
0.75
 49
0.5
 49
-0.25
  0
LTYPE
  5
43B
  2
DOTTED
 70
0
  3
Dotted .  .  .  .
 72
65
 73
2
 40
0.2
 49
0.0
 49
-0.2
  0
ENDTAB
  0
TABLE
  2
STYLE
  70
4
  0
STYLE
  2
KICAD
  70
0
  40
0
  41
1
  42
1
  50
0
  71
0
  3
isocp.shx
  0
STYLE
  2
KICADB
  70
0
  40
0
  41
1
  42
1
  50
0
  71
0
  3
isocp.shx
  0
STYLE
  2
KICADI
  70
0
  40
0
  41
1
  42
1
  50
15
  71
0
  3
isocp.shx
  0
STYLE
  2
KICADBI
  70
0
  40
0
  41
1
  42
1
  50
15
  71
0
  3
isocp.shx
  0
ENDTAB
  0
TABLE
  2
LAYER
  70
1
  0
LAYER
  2
BLACK
  70
0
  62
7
  6
CONTINUOUS
  0
ENDTAB
  0
ENDSEC
  0
SECTION
  2
ENTITIES
0
LINE
8
BLACK
6
CONTINUOUS
10
245.4063999999999908
20
-97.4834999999999923
11
245.4063999999999908
21
-110.4834999999999923
0
LINE
8
BLACK
6
CONTINUOUS
10
259.4103529999999864
20
-110.1299470000000014
11
259.4063999999999623
21
-97.4834999999999923
0
LINE
8
BLACK
6
CONTINUOUS
10
258.9063999999999623
20
-96.9834999999999923
11
245.9063999999999908
21
-96.9834999999999923
0
LINE
8
BLACK
6
CONTINUOUS
10
245.9063999999999908
20
-110.9834999999999923
11
258.55337499999996
21
-110.9864959999999883
0
ARC
8
BLACK
10
245.9063999999999908
20
-97.4834999999999923
40
0.5
50
90.00000000
51
180.00000000
0
ARC
8
BLACK
10
258.9063999999999623
20
-97.4834999999999923
40
0.5
50
0.00000000
51
90.00000000
0
ARC
8
BLACK
10
245.9063999999999908
20
-110.4834999999999923
40
0.5
50
-180.00000000
51
-90.00000000
0
LINE
8
BLACK
6
CONTINUOUS
10
226.3563999999999794
20
-97.4834999999999923
11
226.3563999999999794
21
-110.4834999999999923
0
LINE
8
BLACK
6
CONTINUOUS
10
240.3563999999999794
20
-110.4834999999999923
11
240.3563999999999794
21
-97.4834999999999923
0
LINE
8
BLACK
6
CONTINUOUS
10
239.8563999999999794
20
-96.9834999999999923
11
226.8563999999999794
21
-96.9834999999999923
0
LINE
8
BLACK
6
CONTINUOUS
10
226.8563999999999794
20
-110.9834999999999923
11
239.8563999999999794
21
-110.9834999999999923
0
ARC
8
BLACK
10
226.8563999999999794
20
-97.4834999999999923
40
0.5
50
90.00000000
51
180.00000000
0
ARC
8
BLACK
10
239.8563999999999794
20
-97.4834999999999923
40
0.5
50
0.00000000
51
90.00000000
0
ARC
8
BLACK
10
239.8563999999999794
20
-110.4834999999999923
40
0.5
50
-90.00000000
51
-0.00000000
0
ARC
8
BLACK
10
226.8563999999999794
20
-110.4834999999999923
40
0.5
50
-180.00000000
51
-90.00000000
0
LINE
8
BLACK
6
CONTINUOUS
10
207.3063999999999965
20
-97.4834999999999923
11
207.3063999999999965
21
-110.4834999999999923
0
LINE
8
BLACK
6
CONTINUOUS
10
221.3063999999999965
20
-110.4834999999999923
11
221.3063999999999965
21
-97.4834999999999923
0
LINE
8
BLACK
6
CONTINUOUS
10
220.8063999999999965
20
-96.9834999999999923
11
207.8063999999999965
21
-96.9834999999999923
0
LINE
8
BLACK
6
CONTINUOUS
10
207.8063999999999965
20
-110.9834999999999923
11
220.8063999999999965
21
-110.9834999999999923
0
ARC
8
BLACK
10
207.8063999999999965
20
-97.4834999999999923
40
0.5
50
90.00000000
51
180.00000000
0
ARC
8
BLACK
10
220.8063999999999965
20
-97.4834999999999923
40
0.5
50
0.00000000
51
90.00000000
0
ARC
8
BLACK
10
220.8063999999999965
20
-110.4834999999999923
40
0.5
50
-90.00000000
51
-0.00000000
0
ARC
8
BLACK
10
207.8063999999999965
20
-110.4834999999999923
40
0.5
50
-180.00000000
51
-90.00000000
0
LINE
8
BLACK
6
CONTINUOUS
10
188.2563999999999851
20
-97.4834999999999923
11
188.2563999999999851
21
-110.4834999999999923
0
LINE
8
BLACK
6
CONTINUOUS
10
202.2563999999999851
20
-110.4834999999999923
11
202.2563999999999851
21
-97.4834999999999923
0
LINE
8
BLACK
6
CONTINUOUS
10
201.7563999999999851
20
-96.9834999999999923
11
188.7563999999999851
21
-96.9834999999999923
0
LINE
8
BLACK
6
CONTINUOUS
10
188.7563999999999851
20
-110.9834999999999923
11
201.7563999999999851
21
-110.9834999999999923
0
ARC
8
BLACK
10
188.7563999999999851
20
-97.4834999999999923
40
0.5
50
90.00000000
51
180.00000000
0
ARC
8
BLACK
10
201.7563999999999851
20
-97.4834999999999923
40
0.5
50
0.00000000
51
90.00000000
0
ARC
8
BLACK
10
201.7563999999999851
20
-110.4834999999999923
40
0.5
50
-90.00000000
51
-0.00000000
0
ARC
8
BLACK
10
188.7563999999999851
20
-110.4834999999999923
40
0.5
50
-180.00000000
51
-90.00000000
0
LINE
8
BLACK
6
CONTINUOUS
10
169.2064000000000021
20
-97.4834999999999923
11
169.2064000000000021
21
-110.4834999999999923
0
LINE
8
BLACK
6
CONTINUOUS
10
183.2064000000000021
20
-110.4834999999999923
11
183.2064000000000021
21
-97.4834999999999923
0
LINE
8
BLACK
6
CONTINUOUS
10
182.7064000000000021
20
-96.9834999999999923
11
169.7064000000000021
21
-96.9834999999999923
0
LINE
8
BLACK
6
CONTINUOUS
10
169.7064000000000021
20
-110.9834999999999923
11
182.7064000000000021
21
-110.9834999999999923
0
ARC
8
BLACK
10
169.7064000000000021
20
-97.4834999999999923
40
0.5
50
90.00000000
51
180.00000000
0
ARC
8
BLACK
10
182.7064000000000021
20
-97.4834999999999923
40
0.5
50
0.00000000
51
90.00000000
0
ARC
8
BLACK
10
182.7064000000000021
20
-110.4834999999999923
40
0.5
50
-90.00000000
51
-0.00000000
0
ARC
8
BLACK
10
169.7064000000000021
20
-110.4834999999999923
40
0.5
50
-180.00000000
51
-90.00000000
0
LINE
8
BLACK
6
CONTINUOUS
10
150.1563999999999908
20
-97.4834999999999923
11
150.1563999999999908
21
-110.4834999999999923
0
LINE
8
BLACK
6
CONTINUOUS
10
164.1563999999999908
20
-110.4834999999999923
11
164.1563999999999908
21
-97.4834999999999923
0
LINE
8
BLACK
6
CONTINUOUS
10
163.6563999999999908
20
-96.9834999999999923
11
150.6563999999999908
21
-96.9834999999999923
0
LINE
8
BLACK
6
CONTINUOUS
10
150.6563999999999908
20
-110.9834999999999923
11
163.6563999999999908
21
-110.9834999999999923
0
ARC
8
BLACK
10
150.6563999999999908
20
-97.4834999999999923
40
0.5
50
90.00000000
51
180.00000000
0
ARC
8
BLACK
10
163.6563999999999908
20
-97.4834999999999923
40
0.5
50
0.00000000
51
90.00000000
0
ARC
8
BLACK
10
163.6563999999999908
20
-110.4834999999999923
40
0.5
50
-90.00000000
51
-0.00000000
0
ARC
8
BLACK
10
150.6563999999999908
20
-110.4834999999999923
40
0.5
50
-180.00000000
51
-90.00000000
0
LINE
8
BLACK
6
CONTINUOUS
10
131.1064000000000078
20
-97.4834999999999923
11
131.1064000000000078
21
-110.4834999999999923
0
LINE
8
BLACK
6
CONTINUOUS
10
145.1063999999999794
20
-110.4834999999999923
11
145.1063999999999794
21
-97.4834999999999923
0
LINE
8
BLACK
6
CONTINUOUS
10
144.6063999999999794
20
-96.9834999999999923
11
131.6064000000000078
21
-96.9834999999999923
0
LINE
8
BLACK
6
CONTINUOUS
10
131.6064000000000078
20
-110.9834999999999923
11
144.6063999999999794
21
-110.9834999999999923
0
ARC
8
BLACK
10
131.6064000000000078
20
-97.4834999999999923
40
0.5
50
90.00000000
51
180.00000000
0
ARC
8
BLACK
10
144.6063999999999794
20
-97.4834999999999923
40
0.5
50
0.00000000
51
90.00000000
0
ARC
8
BLACK
10
144.6063999999999794
20
-110.4834999999999923
40
0.5
50
-90.00000000
51
-0.00000000
0
ARC
8
BLACK
10
131.6064000000000078
20
-110.4834999999999923
40
0.5
50
-180.00000000
51
-90.00000000
0
LINE
8
BLACK
6
CONTINUOUS
10
112.0563999999999965
20
-97.4834999999999923
11
112.0563999999999965
21
-110.4834999999999923
0
LINE
8
BLACK
6
CONTINUOUS
10
126.0563999999999965
20
-110.4834999999999923
11
126.0563999999999965
21
-97.4834999999999923
0
LINE
8
BLACK
6
CONTINUOUS
10
125.5563999999999965
20
-96.9834999999999923
11
112.5563999999999965
21
-96.9834999999999923
0
LINE
8
BLACK
6
CONTINUOUS
10
112.5563999999999965
20
-110.9834999999999923
11
125.5563999999999965
21
-110.9834999999999923
0
ARC
8
BLACK
10
112.5563999999999965
20
-97.4834999999999923
40
0.5
50
90.00000000
51
180.00000000
0
ARC
8
BLACK
10
125.5563999999999965
20
-97.4834999999999923
40
0.5
50
0.00000000
51
90.00000000
0
ARC
8
BLACK
10
125.5563999999999965
20
-110.4834999999999923
40
0.5
50
-90.00000000
51
-0.00000000
0
ARC
8
BLACK
10
112.5563999999999965
20
-110.4834999999999923
40
0.5
50
-180.00000000
51
-90.00000000
0
LINE
8
BLACK
6
CONTINUOUS
10
93.0063999999999993
20
-97.4834999999999923
11
93.0063999999999993
21
-110.4834999999999923
0
LINE
8
BLACK
6
CONTINUOUS
10
107.0063999999999993
20
-110.4834999999999923
11
107.0063999999999993
21
-97.4834999999999923
0
LINE
8
BLACK
6
CONTINUOUS
10
106.5063999999999993
20
-96.9834999999999923
11
93.5063999999999993
21
-96.9834999999999923
0
LINE
8
BLACK
6
CONTINUOUS
10
93.5063999999999993
20
-110.9834999999999923
11
106.5063999999999993
21
-110.9834999999999923
0
ARC
8
BLACK
10
93.5063999999999993
20
-97.4834999999999923
40
0.5
50
90.00000000
51
180.00000000
0
ARC
8
BLACK
10
106.5063999999999993
20
-97.4834999999999923
40
0.5
50
0.00000000
51
90.00000000
0
ARC
8
BLACK
10
106.5063999999999993
20
-110.4834999999999923
40
0.5
50
-90.00000000
51
-0.00000000
0
ARC
8
BLACK
10
93.5063999999999993
20
-110.4834999999999923
40
0.5
50
-180.00000000
51
-90.00000000
0
LINE
8
BLACK
6
CONTINUOUS
10
73.9564000000000021
20
-97.4834999999999923
11
73.9564000000000021
21
-110.4834999999999923
0
LINE
8
BLACK
6
CONTINUOUS
10
87.9564000000000021
20
-110.4834999999999923
11
87.9564000000000021
21
-97.4834999999999923
0
LINE
8
BLACK
6
CONTINUOUS
10
87.4564000000000021
20
-96.9834999999999923
11
74.4564000000000021
21
-96.9834999999999923
0
LINE
8
BLACK
6
CONTINUOUS
10
74.4564000000000021
20
-110.9834999999999923
11
87.4564000000000021
21
-110.9834999999999923
0
ARC
8
BLACK
10
74.4564000000000021
20
-97.4834999999999923
40
0.5
50
90.00000000
51
180.00000000
0
ARC
8
BLACK
10
87.4564000000000021
20
-97.4834999999999923
40
0.5
50
0.00000000
51
90.00000000
0
ARC
8
BLACK
10
87.4564000000000021
20
-110.4834999999999923
40
0.5
50
-90.00000000
51
-0.00000000
0
ARC
8
BLACK
10
74.4564000000000021
20
-110.4834999999999923
40
0.5
50
-180.00000000
51
-90.00000000
0
LINE
8
BLACK
6
CONTINUOUS
10
54.9063999999999979
20
-97.4834999999999923
11
54.9028469999999942
21
-110.1299470000000014
0
LINE
8
BLACK
6
CONTINUOUS
10
68.9063999999999908
20
-110.4834999999999923
11
68.9063999999999908
21
-97.4834999999999923
0
LINE
8
BLACK
6
CONTINUOUS
10
68.4063999999999908
20
-96.9834999999999923
11
55.4063999999999979
21
-96.9834999999999923
0
LINE
8
BLACK
6
CONTINUOUS
10
55.7598249999999993
20
-110.9864959999999883
11
68.4063999999999908
21
-110.9834999999999923
0
ARC
8
BLACK
10
55.4063999999999979
20
-97.4834999999999923
40
0.5
50
90.00000000
51
180.00000000
0
ARC
8
BLACK
10
68.4063999999999908
20
-97.4834999999999923
40
0.5
50
0.00000000
51
90.00000000
0
ARC
8
BLACK
10
68.4063999999999908
20
-110.4834999999999923
40
0.5
50
-90.00000000
51
-0.00000000
0
LINE
8
BLACK
6
CONTINUOUS
10
240.6439000000000021
20
-78.4334999999999951
11
240.6439000000000021
21
-91.4334999999999951
0
LINE
8
BLACK
6
CONTINUOUS
10
254.6439000000000021
20
-91.4334999999999951
11
254.6439000000000021
21
-78.4334999999999951
0
LINE
8
BLACK
6
CONTINUOUS
10
254.1439000000000021
20
-77.9334999999999951
11
241.1439000000000021
21
-77.9334999999999951
0
LINE
8
BLACK
6
CONTINUOUS
10
241.1439000000000021
20
-91.9334999999999951
11
254.1439000000000021
21
-91.9334999999999951
0
ARC
8
BLACK
10
241.1439000000000021
20
-78.4334999999999951
40
0.5
50
90.00000000
51
180.00000000
0
ARC
8
BLACK
10
254.1439000000000021
20
-78.4334999999999951
40
0.5
50
0.00000000
51
90.00000000
0
ARC
8
BLACK
10
254.1439000000000021
20
-91.4334999999999951
40
0.5
50
-90.00000000
51
-0.00000000
0
ARC
8
BLACK
10
241.1439000000000021
20
-91.4334999999999951
40
0.5
50
-180.00000000
51
-90.00000000
0
LINE
8
BLACK
6
CONTINUOUS
10
221.5938999999999908
20
-78.4334999999999951
11
221.5938999999999908
21
-91.4334999999999951
0
LINE
8
BLACK
6
CONTINUOUS
10
235.5938999999999908
20
-91.4334999999999951
11
235.5938999999999908
21
-78.4334999999999951
0
LINE
8
BLACK
6
CONTINUOUS
10
235.0938999999999908
20
-77.9334999999999951
11
222.0938999999999908
21
-77.9334999999999951
0
LINE
8
BLACK
6
CONTINUOUS
10
222.0938999999999908
20
-91.9334999999999951
11
235.0938999999999908
21
-91.9334999999999951
0
ARC
8
BLACK
10
222.0938999999999908
20
-78.4334999999999951
40
0.5
50
90.00000000
51
180.00000000
0
ARC
8
BLACK
10
235.0938999999999908
20
-78.4334999999999951
40
0.5
50
0.00000000
51
90.00000000
0
ARC
8
BLACK
10
235.0938999999999908
20
-91.4334999999999951
40
0.5
50
-90.00000000
51
-0.00000000
0
ARC
8
BLACK
10
222.0938999999999908
20
-91.4334999999999951
40
0.5
50
-180.00000000
51
-90.00000000
0
LINE
8
BLACK
6
CONTINUOUS
10
202.5438999999999794
20
-78.4334999999999951
11
202.5438999999999794
21
-91.4334999999999951
0
LINE
8
BLACK
6
CONTINUOUS
10
216.5438999999999794
20
-91.4334999999999951
11
216.5438999999999794
21
-78.4334999999999951
0
LINE
8
BLACK
6
CONTINUOUS
10
216.0438999999999794
20
-77.9334999999999951
11
203.0438999999999794
21
-77.9334999999999951
0
LINE
8
BLACK
6
CONTINUOUS
10
203.0438999999999794
20
-91.9334999999999951
11
216.0438999999999794
21
-91.9334999999999951
0
ARC
8
BLACK
10
203.0438999999999794
20
-78.4334999999999951
40
0.5
50
90.00000000
51
180.00000000
0
ARC
8
BLACK
10
216.0438999999999794
20
-78.4334999999999951
40
0.5
50
0.00000000
51
90.00000000
0
ARC
8
BLACK
10
216.0438999999999794
20
-91.4334999999999951
40
0.5
50
-90.00000000
51
-0.00000000
0
ARC
8
BLACK
10
203.0438999999999794
20
-91.4334999999999951
40
0.5
50
-180.00000000
51
-90.00000000
0
LINE
8
BLACK
6
CONTINUOUS
10
183.4938999999999965
20
-78.4334999999999951
11
183.4938999999999965
21
-91.4334999999999951
0
LINE
8
BLACK
6
CONTINUOUS
10
197.4938999999999965
20
-91.4334999999999951
11
197.4938999999999965
21
-78.4334999999999951
0
LINE
8
BLACK
6
CONTINUOUS
10
196.9938999999999965
20
-77.9334999999999951
11
183.9938999999999965
21
-77.9334999999999951
0
LINE
8
BLACK
6
CONTINUOUS
10
183.9938999999999965
20
-91.9334999999999951
11
196.9938999999999965
21
-91.9334999999999951
0
ARC
8
BLACK
10
183.9938999999999965
20
-78.4334999999999951
40
0.5
50
90.00000000
51
180.00000000
0
ARC
8
BLACK
10
196.9938999999999965
20
-78.4334999999999951
40
0.5
50
0.00000000
51
90.00000000
0
ARC
8
BLACK
10
196.9938999999999965
20
-91.4334999999999951
40
0.5
50
-90.00000000
51
-0.00000000
0
ARC
8
BLACK
10
183.9938999999999965
20
-91.4334999999999951
40
0.5
50
-180.00000000
51
-90.00000000
0
LINE
8
BLACK
6
CONTINUOUS
10
164.4438999999999851
20
-78.4334999999999951
11
164.4438999999999851
21
-91.4334999999999951
0
LINE
8
BLACK
6
CONTINUOUS
10
178.4438999999999851
20
-91.4334999999999951
11
178.4438999999999851
21
-78.4334999999999951
0
LINE
8
BLACK
6
CONTINUOUS
10
177.9438999999999851
20
-77.9334999999999951
11
164.9438999999999851
21
-77.9334999999999951
0
LINE
8
BLACK
6
CONTINUOUS
10
164.9438999999999851
20
-91.9334999999999951
11
177.9438999999999851
21
-91.9334999999999951
0
ARC
8
BLACK
10
164.9438999999999851
20
-78.4334999999999951
40
0.5
50
90.00000000
51
180.00000000
0
ARC
8
BLACK
10
177.9438999999999851
20
-78.4334999999999951
40
0.5
50
0.00000000
51
90.00000000
0
ARC
8
BLACK
10
177.9438999999999851
20
-91.4334999999999951
40
0.5
50
-90.00000000
51
-0.00000000
0
ARC
8
BLACK
10
164.9438999999999851
20
-91.4334999999999951
40
0.5
50
-180.00000000
51
-90.00000000
0
LINE
8
BLACK
6
CONTINUOUS
10
135.8688999999999965
20
-78.4334999999999951
11
135.8688999999999965
21
-91.4334999999999951
0
LINE
8
BLACK
6
CONTINUOUS
10
149.8688999999999965
20
-91.4334999999999951
11
149.8688999999999965
21
-78.4334999999999951
0
LINE
8
BLACK
6
CONTINUOUS
10
149.3688999999999965
20
-77.9334999999999951
11
136.3688999999999965
21
-77.9334999999999951
0
LINE
8
BLACK
6
CONTINUOUS
10
136.3688999999999965
20
-91.9334999999999951
11
149.3688999999999965
21
-91.9334999999999951
0
ARC
8
BLACK
10
136.3688999999999965
20
-78.4334999999999951
40
0.5
50
90.00000000
51
180.00000000
0
ARC
8
BLACK
10
149.3688999999999965
20
-78.4334999999999951
40
0.5
50
0.00000000
51
90.00000000
0
ARC
8
BLACK
10
149.3688999999999965
20
-91.4334999999999951
40
0.5
50
-90.00000000
51
-0.00000000
0
ARC
8
BLACK
10
136.3688999999999965
20
-91.4334999999999951
40
0.5
50
-180.00000000
51
-90.00000000
0
LINE
8
BLACK
6
CONTINUOUS
10
116.8188999999999993
20
-78.4334999999999951
11
116.8188999999999993
21
-91.4334999999999951
0
LINE
8
BLACK
6
CONTINUOUS
10
130.8188999999999851
20
-91.4334999999999951
11
130.8188999999999851
21
-78.4334999999999951
0
LINE
8
BLACK
6
CONTINUOUS
10
130.3188999999999851
20
-77.9334999999999951
11
117.3188999999999993
21
-77.9334999999999951
0
LINE
8
BLACK
6
CONTINUOUS
10
117.3188999999999993
20
-91.9334999999999951
11
130.3188999999999851
21
-91.9334999999999951
0
ARC
8
BLACK
10
117.3188999999999993
20
-78.4334999999999951
40
0.5
50
90.00000000
51
180.00000000
0
ARC
8
BLACK
10
130.3188999999999851
20
-78.4334999999999951
40
0.5
50
0.00000000
51
90.00000000
0
ARC
8
BLACK
10
130.3188999999999851
20
-91.4334999999999951
40
0.5
50
-90.00000000
51
-0.00000000
0
ARC
8
BLACK
10
117.3188999999999993
20
-91.4334999999999951
40
0.5
50
-180.00000000
51
-90.00000000
0
LINE
8
BLACK
6
CONTINUOUS
10
97.7689000000000021
20
-78.4334999999999951
11
97.7689000000000021
21
-91.4334999999999951
0
LINE
8
BLACK
6
CONTINUOUS
10
111.7688999999999879
20
-91.4334999999999951
11
111.7688999999999879
21
-78.4334999999999951
0
LINE
8
BLACK
6
CONTINUOUS
10
111.2688999999999879
20
-77.9334999999999951
11
98.2689000000000021
21
-77.9334999999999951
0
LINE
8
BLACK
6
CONTINUOUS
10
98.2689000000000021
20
-91.9334999999999951
11
111.2688999999999879
21
-91.9334999999999951
0
ARC
8
BLACK
10
98.2689000000000021
20
-78.4334999999999951
40
0.5
50
90.00000000
51
180.00000000
0
ARC
8
BLACK
10
111.2688999999999879
20
-78.4334999999999951
40
0.5
50
0.00000000
51
90.00000000
0
ARC
8
BLACK
10
111.2688999999999879
20
-91.4334999999999951
40
0.5
50
-90.00000000
51
-0.00000000
0
ARC
8
BLACK
10
98.2689000000000021
20
-91.4334999999999951
40
0.5
50
-180.00000000
51
-90.00000000
0
LINE
8
BLACK
6
CONTINUOUS
10
78.7188999999999908
20
-78.4334999999999951
11
78.7188999999999908
21
-91.4334999999999951
0
LINE
8
BLACK
6
CONTINUOUS
10
92.7188999999999908
20
-91.4334999999999951
11
92.7188999999999908
21
-78.4334999999999951
0
LINE
8
BLACK
6
CONTINUOUS
10
92.2188999999999908
20
-77.9334999999999951
11
79.2188999999999908
21
-77.9334999999999951
0
LINE
8
BLACK
6
CONTINUOUS
10
79.2188999999999908
20
-91.9334999999999951
11
92.2188999999999908
21
-91.9334999999999951
0
ARC
8
BLACK
10
79.2188999999999908
20
-78.4334999999999951
40
0.5
50
90.00000000
51
180.00000000
0
ARC
8
BLACK
10
92.2188999999999908
20
-78.4334999999999951
40
0.5
50
0.00000000
51
90.00000000
0
ARC
8
BLACK
10
92.2188999999999908
20
-91.4334999999999951
40
0.5
50
-90.00000000
51
-0.00000000
0
ARC
8
BLACK
10
79.2188999999999908
20
-91.4334999999999951
40
0.5
50
-180.00000000
51
-90.00000000
0
LINE
8
BLACK
6
CONTINUOUS
10
59.6689000000000007
20
-78.4334999999999951
11
59.6689000000000007
21
-91.4334999999999951
0
LINE
8
BLACK
6
CONTINUOUS
10
73.6688999999999936
20
-91.4334999999999951
11
73.6688999999999936
21
-78.4334999999999951
0
LINE
8
BLACK
6
CONTINUOUS
10
73.1688999999999936
20
-77.9334999999999951
11
60.1689000000000007
21
-77.9334999999999951
0
LINE
8
BLACK
6
CONTINUOUS
10
60.1689000000000007
20
-91.9334999999999951
11
73.1688999999999936
21
-91.9334999999999951
0
ARC
8
BLACK
10
60.1689000000000007
20
-78.4334999999999951
40
0.5
50
90.00000000
51
180.00000000
0
ARC
8
BLACK
10
73.1688999999999936
20
-78.4334999999999951
40
0.5
50
0.00000000
51
90.00000000
0
ARC
8
BLACK
10
73.1688999999999936
20
-91.4334999999999951
40
0.5
50
-90.00000000
51
-0.00000000
0
ARC
8
BLACK
10
60.1689000000000007
20
-91.4334999999999951
40
0.5
50
-180.00000000
51
-90.00000000
0
LINE
8
BLACK
6
CONTINUOUS
10
245.4063999999999908
20
-59.383499999999998
11
245.4063999999999908
21
-72.383499999999998
0
LINE
8
BLACK
6
CONTINUOUS
10
259.4063999999999623
20
-72.383499999999998
11
259.4063999999999623
21
-59.383499999999998
0
LINE
8
BLACK
6
CONTINUOUS
10
258.9063999999999623
20
-58.883499999999998
11
245.9063999999999908
21
-58.883499999999998
0
LINE
8
BLACK
6
CONTINUOUS
10
245.9063999999999908
20
-72.883499999999998
11
258.9063999999999623
21
-72.883499999999998
0
ARC
8
BLACK
10
245.9063999999999908
20
-59.383499999999998
40
0.5
50
90.00000000
51
180.00000000
0
ARC
8
BLACK
10
258.9063999999999623
20
-59.383499999999998
40
0.5
50
0.00000000
51
90.00000000
0
ARC
8
BLACK
10
258.9063999999999623
20
-72.383499999999998
40
0.5
50
-90.00000000
51
-0.00000000
0
ARC
8
BLACK
10
245.9063999999999908
20
-72.383499999999998
40
0.5
50
-180.00000000
51
-90.00000000
0
LINE
8
BLACK
6
CONTINUOUS
10
226.3563999999999794
20
-59.383499999999998
11
226.3563999999999794
21
-72.383499999999998
0
LINE
8
BLACK
6
CONTINUOUS
10
240.3563999999999794
20
-72.383499999999998
11
240.3563999999999794
21
-59.383499999999998
0
LINE
8
BLACK
6
CONTINUOUS
10
239.8563999999999794
20
-58.883499999999998
11
226.8563999999999794
21
-58.883499999999998
0
LINE
8
BLACK
6
CONTINUOUS
10
226.8563999999999794
20
-72.883499999999998
11
239.8563999999999794
21
-72.883499999999998
0
ARC
8
BLACK
10
226.8563999999999794
20
-59.383499999999998
40
0.5
50
90.00000000
51
180.00000000
0
ARC
8
BLACK
10
239.8563999999999794
20
-59.383499999999998
40
0.5
50
0.00000000
51
90.00000000
0
ARC
8
BLACK
10
239.8563999999999794
20
-72.383499999999998
40
0.5
50
-90.00000000
51
-0.00000000
0
ARC
8
BLACK
10
226.8563999999999794
20
-72.383499999999998
40
0.5
50
-180.00000000
51
-90.00000000
0
LINE
8
BLACK
6
CONTINUOUS
10
207.3063999999999965
20
-59.383499999999998
11
207.3063999999999965
21
-72.383499999999998
0
LINE
8
BLACK
6
CONTINUOUS
10
221.3063999999999965
20
-72.383499999999998
11
221.3063999999999965
21
-59.383499999999998
0
LINE
8
BLACK
6
CONTINUOUS
10
220.8063999999999965
20
-58.883499999999998
11
207.8063999999999965
21
-58.883499999999998
0
LINE
8
BLACK
6
CONTINUOUS
10
207.8063999999999965
20
-72.883499999999998
11
220.8063999999999965
21
-72.883499999999998
0
ARC
8
BLACK
10
207.8063999999999965
20
-59.383499999999998
40
0.5
50
90.00000000
51
180.00000000
0
ARC
8
BLACK
10
220.8063999999999965
20
-59.383499999999998
40
0.5
50
0.00000000
51
90.00000000
0
ARC
8
BLACK
10
220.8063999999999965
20
-72.383499999999998
40
0.5
50
-90.00000000
51
-0.00000000
0
ARC
8
BLACK
10
207.8063999999999965
20
-72.383499999999998
40
0.5
50
-180.00000000
51
-90.00000000
0
LINE
8
BLACK
6
CONTINUOUS
10
188.2563999999999851
20
-59.383499999999998
11
188.2563999999999851
21
-72.383499999999998
0
LINE
8
BLACK
6
CONTINUOUS
10
202.2563999999999851
20
-72.383499999999998
11
202.2563999999999851
21
-59.383499999999998
0
LINE
8
BLACK
6
CONTINUOUS
10
201.7563999999999851
20
-58.883499999999998
11
188.7563999999999851
21
-58.883499999999998
0
LINE
8
BLACK
6
CONTINUOUS
10
188.7563999999999851
20
-72.883499999999998
11
201.7563999999999851
21
-72.883499999999998
0
ARC
8
BLACK
10
188.7563999999999851
20
-59.383499999999998
40
0.5
50
90.00000000
51
180.00000000
0
ARC
8
BLACK
10
201.7563999999999851
20
-59.383499999999998
40
0.5
50
0.00000000
51
90.00000000
0
ARC
8
BLACK
10
201.7563999999999851
20
-72.383499999999998
40
0.5
50
-90.00000000
51
-0.00000000
0
ARC
8
BLACK
10
188.7563999999999851
20
-72.383499999999998
40
0.5
50
-180.00000000
51
-90.00000000
0
LINE
8
BLACK
6
CONTINUOUS
10
169.2064000000000021
20
-59.383499999999998
11
169.2064000000000021
21
-72.383499999999998
0
LINE
8
BLACK
6
CONTINUOUS
10
183.2064000000000021
20
-72.383499999999998
11
183.2064000000000021
21
-59.383499999999998
0
LINE
8
BLACK
6
CONTINUOUS
10
182.7064000000000021
20
-58.883499999999998
11
169.7064000000000021
21
-58.883499999999998
0
LINE
8
BLACK
6
CONTINUOUS
10
169.7064000000000021
20
-72.883499999999998
11
182.7064000000000021
21
-72.883499999999998
0
ARC
8
BLACK
10
169.7064000000000021
20
-59.383499999999998
40
0.5
50
90.00000000
51
180.00000000
0
ARC
8
BLACK
10
182.7064000000000021
20
-59.383499999999998
40
0.5
50
0.00000000
51
90.00000000
0
ARC
8
BLACK
10
182.7064000000000021
20
-72.383499999999998
40
0.5
50
-90.00000000
51
-0.00000000
0
ARC
8
BLACK
10
169.7064000000000021
20
-72.383499999999998
40
0.5
50
-180.00000000
51
-90.00000000
0
LINE
8
BLACK
6
CONTINUOUS
10
150.1563999999999908
20
-59.383499999999998
11
150.1563999999999908
21
-72.383499999999998
0
LINE
8
BLACK
6
CONTINUOUS
10
164.1563999999999908
20
-72.383499999999998
11
164.1563999999999908
21
-59.383499999999998
0
LINE
8
BLACK
6
CONTINUOUS
10
163.6563999999999908
20
-58.883499999999998
11
150.6563999999999908
21
-58.883499999999998
0
LINE
8
BLACK
6
CONTINUOUS
10
150.6563999999999908
20
-72.883499999999998
11
163.6563999999999908
21
-72.883499999999998
0
ARC
8
BLACK
10
150.6563999999999908
20
-59.383499999999998
40
0.5
50
90.00000000
51
180.00000000
0
ARC
8
BLACK
10
163.6563999999999908
20
-59.383499999999998
40
0.5
50
0.00000000
51
90.00000000
0
ARC
8
BLACK
10
163.6563999999999908
20
-72.383499999999998
40
0.5
50
-90.00000000
51
-0.00000000
0
ARC
8
BLACK
10
150.6563999999999908
20
-72.383499999999998
40
0.5
50
-180.00000000
51
-90.00000000
0
LINE
8
BLACK
6
CONTINUOUS
10
131.1064000000000078
20
-59.383499999999998
11
131.1064000000000078
21
-72.383499999999998
0
LINE
8
BLACK
6
CONTINUOUS
10
145.1063999999999794
20
-72.383499999999998
11
145.1063999999999794
21
-59.383499999999998
0
LINE
8
BLACK
6
CONTINUOUS
10
144.6063999999999794
20
-58.883499999999998
11
131.6064000000000078
21
-58.883499999999998
0
LINE
8
BLACK
6
CONTINUOUS
10
131.6064000000000078
20
-72.883499999999998
11
144.6063999999999794
21
-72.883499999999998
0
ARC
8
BLACK
10
131.6064000000000078
20
-59.383499999999998
40
0.5
50
90.00000000
51
180.00000000
0
ARC
8
BLACK
10
144.6063999999999794
20
-59.383499999999998
40
0.5
50
0.00000000
51
90.00000000
0
ARC
8
BLACK
10
144.6063999999999794
20
-72.383499999999998
40
0.5
50
-90.00000000
51
-0.00000000
0
ARC
8
BLACK
10
131.6064000000000078
20
-72.383499999999998
40
0.5
50
-180.00000000
51
-90.00000000
0
LINE
8
BLACK
6
CONTINUOUS
10
112.0563999999999965
20
-59.383499999999998
11
112.0563999999999965
21
-72.383499999999998
0
LINE
8
BLACK
6
CONTINUOUS
10
126.0563999999999965
20
-72.383499999999998
11
126.0563999999999965
21
-59.383499999999998
0
LINE
8
BLACK
6
CONTINUOUS
10
125.5563999999999965
20
-58.883499999999998
11
112.5563999999999965
21
-58.883499999999998
0
LINE
8
BLACK
6
CONTINUOUS
10
112.5563999999999965
20
-72.883499999999998
11
125.5563999999999965
21
-72.883499999999998
0
ARC
8
BLACK
10
112.5563999999999965
20
-59.383499999999998
40
0.5
50
90.00000000
51
180.00000000
0
ARC
8
BLACK
10
125.5563999999999965
20
-59.383499999999998
40
0.5
50
0.00000000
51
90.00000000
0
ARC
8
BLACK
10
125.5563999999999965
20
-72.383499999999998
40
0.5
50
-90.00000000
51
-0.00000000
0
ARC
8
BLACK
10
112.5563999999999965
20
-72.383499999999998
40
0.5
50
-180.00000000
51
-90.00000000
0
LINE
8
BLACK
6
CONTINUOUS
10
93.0063999999999993
20
-59.383499999999998
11
93.0063999999999993
21
-72.383499999999998
0
LINE
8
BLACK
6
CONTINUOUS
10
107.0063999999999993
20
-72.383499999999998
11
107.0063999999999993
21
-59.383499999999998
0
LINE
8
BLACK
6
CONTINUOUS
10
106.5063999999999993
20
-58.883499999999998
11
93.5063999999999993
21
-58.883499999999998
0
LINE
8
BLACK
6
CONTINUOUS
10
93.5063999999999993
20
-72.883499999999998
11
106.5063999999999993
21
-72.883499999999998
0
ARC
8
BLACK
10
93.5063999999999993
20
-59.383499999999998
40
0.5
50
90.00000000
51
180.00000000
0
ARC
8
BLACK
10
106.5063999999999993
20
-59.383499999999998
40
0.5
50
0.00000000
51
90.00000000
0
ARC
8
BLACK
10
106.5063999999999993
20
-72.383499999999998
40
0.5
50
-90.00000000
51
-0.00000000
0
ARC
8
BLACK
10
93.5063999999999993
20
-72.383499999999998
40
0.5
50
-180.00000000
51
-90.00000000
0
LINE
8
BLACK
6
CONTINUOUS
10
73.9564000000000021
20
-59.383499999999998
11
73.9564000000000021
21
-72.383499999999998
0
LINE
8
BLACK
6
CONTINUOUS
10
87.9564000000000021
20
-72.383499999999998
11
87.9564000000000021
21
-59.383499999999998
0
LINE
8
BLACK
6
CONTINUOUS
10
87.4564000000000021
20
-58.883499999999998
11
74.4564000000000021
21
-58.883499999999998
0
LINE
8
BLACK
6
CONTINUOUS
10
74.4564000000000021
20
-72.883499999999998
11
87.4564000000000021
21
-72.883499999999998
0
ARC
8
BLACK
10
74.4564000000000021
20
-59.383499999999998
40
0.5
50
90.00000000
51
180.00000000
0
ARC
8
BLACK
10
87.4564000000000021
20
-59.383499999999998
40
0.5
50
0.00000000
51
90.00000000
0
ARC
8
BLACK
10
87.4564000000000021
20
-72.383499999999998
40
0.5
50
-90.00000000
51
-0.00000000
0
ARC
8
BLACK
10
74.4564000000000021
20
-72.383499999999998
40
0.5
50
-180.00000000
51
-90.00000000
0
LINE
8
BLACK
6
CONTINUOUS
10
54.9063999999999979
20
-59.383499999999998
11
54.9063999999999979
21
-72.383499999999998
0
LINE
8
BLACK
6
CONTINUOUS
10
68.9063999999999908
20
-72.383499999999998
11
68.9063999999999908
21
-59.383499999999998
0
LINE
8
BLACK
6
CONTINUOUS
10
68.4063999999999908
20
-58.883499999999998
11
55.4063999999999979
21
-58.883499999999998
0
LINE
8
BLACK
6
CONTINUOUS
10
55.4063999999999979
20
-72.883499999999998
11
68.4063999999999908
21
-72.883499999999998
0
ARC
8
BLACK
10
55.4063999999999979
20
-59.383499999999998
40
0.5
50
90.00000000
51
180.00000000
0
ARC
8
BLACK
10
68.4063999999999908
20
-59.383499999999998
40
0.5
50
0.00000000
51
90.00000000
0
ARC
8
BLACK
10
68.4063999999999908
20
-72.383499999999998
40
0.5
50
-90.00000000
51
-0.00000000
0
ARC
8
BLACK
10
55.4063999999999979
20
-72.383499999999998
40
0.5
50
-180.00000000
51
-90.00000000
0
ARC
8
BLACK
10
259.6657999999999902
20
-111.2424999999999926
40
1.1415022328572118
50
-192.95991850
51
102.93123211
0
ARC
8
BLACK
10
54.6473999999999975
20
-111.2424999999999926
40
1.1415022683468481
50
-282.93123211
51
12.95991850
0
ARC
8
BLACK
10
193.5254999999999939
20
-114.5335999999999927
40
0.5000830156224064
50
0.00950872
51
89.98567843
0
ARC
8
BLACK
10
201.7813999999999908
20
-114.5334999999999894
40
0.5000250002889856
50
-269.99713511
51
-179.99805204
0
ARC
8
BLACK
10
230.3314000000000021
20
-116.5334999999999894
40
0.4999830006250212
50
-0.00194815
51
90.00286489
0
LINE
8
BLACK
6
CONTINUOUS
10
106.531374999999997
20
-114.0335169999999891
11
112.531374999999997
21
-114.0335169999999891
0
ARC
8
BLACK
10
184.1443999999999903
20
-115.5334999999999894
40
0.4999750002890144
50
-90.00286469
51
-0.00194815
0
LINE
8
BLACK
6
CONTINUOUS
10
208.281374999999997
20
-114.5335169999999891
11
208.281374999999997
21
-115.5335169999999891
0
ARC
8
BLACK
10
79.1813999999999965
20
-115.2834999999999894
40
1.1999830002604204
50
-0.00081171
51
90.00119368
0
LINE
8
BLACK
6
CONTINUOUS
10
170.6813750000000027
20
-116.0335169999999891
11
172.20637499999998
21
-116.0335169999999891
0
LINE
8
BLACK
6
CONTINUOUS
10
106.031374999999997
20
-115.5335169999999891
11
106.031374999999997
21
-114.5335169999999891
0
LINE
8
BLACK
6
CONTINUOUS
10
201.281374999999997
20
-115.5335169999999891
11
201.281374999999997
21
-114.5335169999999891
0
ARC
8
BLACK
10
185.1443999999999903
20
-114.5334999999999894
40
0.5000250002889856
50
-269.99713511
51
-179.99805204
0
ARC
8
BLACK
10
83.9813999999999936
20
-129.5335000000000036
40
0.5000170006249787
50
-179.99805204
51
-90.00286469
0
ARC
8
BLACK
10
200.7813999999999908
20
-115.5334999999999894
40
0.4999750002890144
50
-90.00286469
51
-0.00194815
0
ARC
8
BLACK
10
83.4813999999999936
20
-130.0335000000000036
40
3.1000170001008058
50
-179.99968580
51
-90.00046206
0
LINE
8
BLACK
6
CONTINUOUS
10
83.4813749999999999
20
-129.5335169999999891
11
83.4813749999999999
21
-116.5335169999999891
0
LINE
8
BLACK
6
CONTINUOUS
10
179.70637499999998
20
-114.5335169999999891
11
179.70637499999998
21
-115.5335169999999891
0
LINE
8
BLACK
6
CONTINUOUS
10
259.4063749999999686
20
-114.0835170000000005
11
235.1313749999999914
21
-114.0835170000000005
0
LINE
8
BLACK
6
CONTINUOUS
10
113.531374999999997
20
-116.0335169999999891
11
115.0246250000000003
21
-116.0335169999999891
0
ARC
8
BLACK
10
105.5313999999999908
20
-115.5334999999999894
40
0.4999750002890144
50
-90.00286469
51
-0.00194815
0
ARC
8
BLACK
10
259.4063999999999623
20
-110.9834999999999923
40
3.0999750000466131
50
-90.00046206
51
-0.00031421
0
LINE
8
BLACK
6
CONTINUOUS
10
208.781374999999997
20
-116.0335169999999891
11
230.33137499999998
21
-116.0335169999999891
0
ARC
8
BLACK
10
154.044399999999996
20
-115.5334999999999894
40
0.5000170006249787
50
-179.99805204
51
-90.00286469
0
LINE
8
BLACK
6
CONTINUOUS
10
230.83137499999998
20
-116.5335169999999891
11
230.83137499999998
21
-129.5335169999999891
0
ARC
8
BLACK
10
135.1064000000000078
20
-114.5334999999999894
40
0.5000250002889856
50
-269.99713511
51
-179.99805204
0
LINE
8
BLACK
6
CONTINUOUS
10
185.1443749999999966
20
-114.0335169999999891
11
193.5256249999999909
21
-114.0335169999999891
0
LINE
8
BLACK
6
CONTINUOUS
10
134.6063749999999857
20
-115.5335169999999891
11
134.6063749999999857
21
-114.5335169999999891
0
ARC
8
BLACK
10
54.9063999999999979
20
-58.883499999999998
40
3.1000250000466125
50
-269.99953793
51
-179.99968580
0
CIRCLE
8
BLACK
10
242.8813749999999914
20
-58.8835169999999977
40
1.1499999999999999
0
ARC
8
BLACK
10
83.9813999999999936
20
-116.5334999999999894
40
0.5000250002889856
50
-269.99713511
51
-179.99805204
0
LINE
8
BLACK
6
CONTINUOUS
10
51.8063749999999956
20
-110.983516999999992
11
51.8063749999999956
21
-58.8835169999999977
0
ARC
8
BLACK
10
194.5257000000000005
20
-115.5334000000000003
40
0.500117005623684
50
-179.98659480
51
-90.00859236
0
ARC
8
BLACK
10
230.8314000000000021
20
-130.0335000000000036
40
3.0999750000466131
50
-90.00046206
51
-0.00031421
0
LINE
8
BLACK
6
CONTINUOUS
10
170.1813750000000027
20
-114.5335169999999891
11
170.1813750000000027
21
-115.5335169999999891
0
ARC
8
BLACK
10
208.7813999999999908
20
-115.5334999999999894
40
0.5000170006249787
50
-179.99805204
51
-90.00286469
0
LINE
8
BLACK
6
CONTINUOUS
10
201.781374999999997
20
-114.0335169999999891
11
207.781374999999997
21
-114.0335169999999891
0
ARC
8
BLACK
10
179.2064000000000021
20
-114.5334999999999894
40
0.4999830006250212
50
-0.00194815
51
90.00286489
0
ARC
8
BLACK
10
230.3314000000000021
20
-129.5335000000000036
40
0.4999750002890144
50
-90.00286469
51
-0.00194815
0
ARC
8
BLACK
10
180.2064000000000021
20
-115.5334999999999894
40
0.5000170006249787
50
-179.99805204
51
-90.00286469
0
LINE
8
BLACK
6
CONTINUOUS
10
161.2683749999999918
20
-114.0335169999999891
11
169.6813750000000027
21
-114.0335169999999891
0
LINE
8
BLACK
6
CONTINUOUS
10
54.906374999999997
20
-55.7835169999999962
11
259.4063749999999686
21
-55.7835169999999962
0
LINE
8
BLACK
6
CONTINUOUS
10
173.20637499999998
20
-114.0335169999999891
11
179.20637499999998
21
-114.0335169999999891
0
ARC
8
BLACK
10
160.2683999999999855
20
-115.5334999999999894
40
0.4999750002890144
50
-90.00286469
51
-0.00194815
0
LINE
8
BLACK
6
CONTINUOUS
10
83.9813749999999999
20
-116.0335169999999891
11
105.531374999999997
21
-116.0335169999999891
0
ARC
8
BLACK
10
173.2064000000000021
20
-114.5334999999999894
40
0.5000250002889856
50
-269.99713511
51
-179.99805204
0
ARC
8
BLACK
10
112.5313999999999908
20
-114.5334999999999894
40
0.4999830006250212
50
-0.00194815
51
90.00286489
0
LINE
8
BLACK
6
CONTINUOUS
10
184.6443749999999966
20
-115.5335169999999891
11
184.6443749999999966
21
-114.5335169999999891
0
ARC
8
BLACK
10
115.0246999999999957
20
-115.5335999999999927
40
0.4999250068900334
50
-90.00859579
51
0.00951253
0
ARC
8
BLACK
10
113.5313999999999908
20
-115.5334999999999894
40
0.5000170006249787
50
-179.99805204
51
-90.00286469
0
LINE
8
BLACK
6
CONTINUOUS
10
130.1683749999999975
20
-116.0335169999999891
11
134.1063749999999857
21
-116.0335169999999891
0
ARC
8
BLACK
10
54.9063999999999979
20
-110.9834999999999923
40
3.1000170001008058
50
-179.99968580
51
-90.00046206
0
LINE
8
BLACK
6
CONTINUOUS
10
80.3813749999999914
20
-130.0335169999999891
11
80.3813749999999914
21
-115.2835169999999891
0
CIRCLE
8
BLACK
10
71.4313750000000027
20
-58.8835169999999977
40
1.1499999999999999
0
LINE
8
BLACK
6
CONTINUOUS
10
172.70637499999998
20
-115.5335169999999891
11
172.70637499999998
21
-114.5335169999999891
0
ARC
8
BLACK
10
134.1064000000000078
20
-115.5334999999999894
40
0.4999750002890144
50
-90.00286469
51
-0.00194815
0
ARC
8
BLACK
10
106.5313999999999908
20
-114.5334999999999894
40
0.5000250002889856
50
-269.99713511
51
-179.99805204
0
ARC
8
BLACK
10
129.1683999999999912
20
-114.5334999999999894
40
0.4999830006250212
50
-0.00194815
51
90.00286489
0
ARC
8
BLACK
10
170.6813999999999965
20
-115.5334999999999894
40
0.5000170006249787
50
-179.99805204
51
-90.00286469
0
ARC
8
BLACK
10
235.1313999999999851
20
-115.2834999999999894
40
1.2000250001204142
50
-269.99880632
51
-179.99918833
0
LINE
8
BLACK
6
CONTINUOUS
10
230.83137499999998
20
-133.1335169999999835
11
83.4813749999999999
21
-133.1335169999999835
0
ARC
8
BLACK
10
169.6813999999999965
20
-114.5334999999999894
40
0.4999830006250212
50
-0.00194815
51
90.00286489
0
LINE
8
BLACK
6
CONTINUOUS
10
160.7683749999999918
20
-115.5335169999999891
11
160.7683749999999918
21
-114.5335169999999891
0
LINE
8
BLACK
6
CONTINUOUS
10
115.5246250000000003
20
-115.5335169999999891
11
115.5246250000000003
21
-114.5335169999999891
0
LINE
8
BLACK
6
CONTINUOUS
10
233.9313750000000027
20
-115.2835169999999891
11
233.9313750000000027
21
-130.0335169999999891
0
ARC
8
BLACK
10
130.1683999999999912
20
-115.5334999999999894
40
0.5000170006249787
50
-179.99805204
51
-90.00286469
0
LINE
8
BLACK
6
CONTINUOUS
10
113.031374999999997
20
-114.5335169999999891
11
113.031374999999997
21
-115.5335169999999891
0
LINE
8
BLACK
6
CONTINUOUS
10
262.5063749999999914
20
-58.8835169999999977
11
262.5063749999999914
21
-110.983516999999992
0
LINE
8
BLACK
6
CONTINUOUS
10
116.0246250000000003
20
-114.0335169999999891
11
129.1683749999999975
21
-114.0335169999999891
0
ARC
8
BLACK
10
116.0245999999999924
20
-114.5334999999999894
40
0.4999750002890144
50
-270.00286489
51
-179.99805185
0
LINE
8
BLACK
6
CONTINUOUS
10
194.0256249999999909
20
-114.5335169999999891
11
194.0256249999999909
21
-115.5335169999999891
0
LINE
8
BLACK
6
CONTINUOUS
10
135.1063749999999857
20
-114.0335169999999891
11
153.0443750000000023
21
-114.0335169999999891
0
ARC
8
BLACK
10
259.4063999999999623
20
-58.883499999999998
40
3.0999830001008069
50
-0.00031421
51
90.00046207
0
LINE
8
BLACK
6
CONTINUOUS
10
180.20637499999998
20
-116.0335169999999891
11
184.1443749999999966
21
-116.0335169999999891
0
ARC
8
BLACK
10
153.044399999999996
20
-114.5334999999999894
40
0.4999830006250212
50
-0.00194815
51
90.00286489
0
LINE
8
BLACK
6
CONTINUOUS
10
230.33137499999998
20
-130.0335169999999891
11
83.9813749999999999
21
-130.0335169999999891
0
LINE
8
BLACK
6
CONTINUOUS
10
153.5443750000000023
20
-114.5335169999999891
11
153.5443750000000023
21
-115.5335169999999891
0
ARC
8
BLACK
10
207.7813999999999908
20
-114.5334999999999894
40
0.4999830006250212
50
-0.00194815
51
90.00286489
0
LINE
8
BLACK
6
CONTINUOUS
10
79.1813750000000027
20
-114.0835170000000005
11
54.906374999999997
21
-114.0835170000000005
0
LINE
8
BLACK
6
CONTINUOUS
10
194.5256249999999909
20
-116.0335169999999891
11
200.781374999999997
21
-116.0335169999999891
0
ARC
8
BLACK
10
161.2683999999999855
20
-114.5334999999999894
40
0.5000250002889856
50
-269.99713511
51
-179.99805204
0
ARC
8
BLACK
10
172.2064000000000021
20
-115.5334999999999894
40
0.4999750002890144
50
-90.00286469
51
-0.00194815
0
LINE
8
BLACK
6
CONTINUOUS
10
154.0443750000000023
20
-116.0335169999999891
11
160.2683749999999918
21
-116.0335169999999891
0
LINE
8
BLACK
6
CONTINUOUS
10
129.6683749999999975
20
-114.5335169999999891
11
129.6683749999999975
21
-115.5335169999999891
  0
ENDSEC
  0
EOF
