  0
SECTION
  2
HEADER
  9
$ANGBASE
  50
0.0
  9
$ANGDIR
  70
1
  9
$MEASUREMENT
  70
1
  0
ENDSEC
  0
SECTION
  2
TABLES
  0
TABLE
  2
LTYPE
  70
4
  0
LTYPE
  5
40F
  2
CONTINUOUS
  70
0
  3
Solid line
  72
65
  73
0
  40
0.0
  0
LTYPE
  5
410
  2
DASHDOT
 70
0
  3
Dash Dot ____ _ ____ _
 72
65
 73
4
 40
2.0
 49
1.25
 49
-0.25
 49
0.25
 49
-0.25
  0
LTYPE
  5
411
  2
DASHED
 70
0
  3
Dashed __ __ __ __ __
 72
65
 73
2
 40
0.75
 49
0.5
 49
-0.25
  0
LTYPE
  5
43B
  2
DOTTED
 70
0
  3
Dotted .  .  .  .
 72
65
 73
2
 40
0.2
 49
0.0
 49
-0.2
  0
ENDTAB
  0
TABLE
  2
STYLE
  70
4
  0
STYLE
  2
KICAD
  70
0
  40
0
  41
1
  42
1
  50
0
  71
0
  3
isocp.shx
  0
STYLE
  2
KICADB
  70
0
  40
0
  41
1
  42
1
  50
0
  71
0
  3
isocp.shx
  0
STYLE
  2
KICADI
  70
0
  40
0
  41
1
  42
1
  50
15
  71
0
  3
isocp.shx
  0
STYLE
  2
KICADBI
  70
0
  40
0
  41
1
  42
1
  50
15
  71
0
  3
isocp.shx
  0
ENDTAB
  0
TABLE
  2
LAYER
  70
1
  0
LAYER
  2
BLACK
  70
0
  62
7
  6
CONTINUOUS
  0
ENDTAB
  0
ENDSEC
  0
SECTION
  2
ENTITIES
0
CIRCLE
8
BLACK
10
233.0494999999999948
20
-53.1963000000000008
40
1.1499999999999999
0
CIRCLE
8
BLACK
10
61.599499999999999
20
-53.1962649999999968
40
1.1499999999999999
0
LINE
8
BLACK
6
CONTINUOUS
10
235.5994999999999777
20
-91.7962649999999911
11
235.5994999999999777
21
-104.7962649999999911
0
LINE
8
BLACK
6
CONTINUOUS
10
249.5994999999999777
20
-104.7962649999999911
11
249.5994999999999777
21
-91.7962649999999911
0
LINE
8
BLACK
6
CONTINUOUS
10
249.0994999999999777
20
-91.2962649999999911
11
236.0994999999999777
21
-91.2962649999999911
0
LINE
8
BLACK
6
CONTINUOUS
10
236.0994999999999777
20
-105.2962649999999911
11
249.0994999999999777
21
-105.2962649999999911
0
ARC
8
BLACK
10
236.0994999999999777
20
-91.7962649999999911
40
0.5
50
90.00000000
51
180.00000000
0
ARC
8
BLACK
10
249.0994999999999777
20
-91.7962649999999911
40
0.5
50
0.00000000
51
90.00000000
0
ARC
8
BLACK
10
249.0994999999999777
20
-104.7962649999999911
40
0.5
50
-90.00000000
51
-0.00000000
0
ARC
8
BLACK
10
236.0994999999999777
20
-104.7962649999999911
40
0.5
50
-180.00000000
51
-90.00000000
0
LINE
8
BLACK
6
CONTINUOUS
10
216.5494999999999948
20
-91.7962649999999911
11
216.5494999999999948
21
-104.7962649999999911
0
LINE
8
BLACK
6
CONTINUOUS
10
230.5494999999999948
20
-104.7962649999999911
11
230.5494999999999948
21
-91.7962649999999911
0
LINE
8
BLACK
6
CONTINUOUS
10
230.0494999999999948
20
-91.2962649999999911
11
217.0494999999999948
21
-91.2962649999999911
0
LINE
8
BLACK
6
CONTINUOUS
10
217.0494999999999948
20
-105.2962649999999911
11
230.0494999999999948
21
-105.2962649999999911
0
ARC
8
BLACK
10
217.0494999999999948
20
-91.7962649999999911
40
0.5
50
90.00000000
51
180.00000000
0
ARC
8
BLACK
10
230.0494999999999948
20
-91.7962649999999911
40
0.5
50
0.00000000
51
90.00000000
0
ARC
8
BLACK
10
230.0494999999999948
20
-104.7962649999999911
40
0.5
50
-90.00000000
51
-0.00000000
0
ARC
8
BLACK
10
217.0494999999999948
20
-104.7962649999999911
40
0.5
50
-180.00000000
51
-90.00000000
0
LINE
8
BLACK
6
CONTINUOUS
10
197.4994999999999834
20
-91.7962649999999911
11
197.4994999999999834
21
-104.7962649999999911
0
LINE
8
BLACK
6
CONTINUOUS
10
211.4994999999999834
20
-104.7962649999999911
11
211.4994999999999834
21
-91.7962649999999911
0
LINE
8
BLACK
6
CONTINUOUS
10
210.9994999999999834
20
-91.2962649999999911
11
197.9994999999999834
21
-91.2962649999999911
0
LINE
8
BLACK
6
CONTINUOUS
10
197.9994999999999834
20
-105.2962649999999911
11
210.9994999999999834
21
-105.2962649999999911
0
ARC
8
BLACK
10
197.9994999999999834
20
-91.7962649999999911
40
0.5
50
90.00000000
51
180.00000000
0
ARC
8
BLACK
10
210.9994999999999834
20
-91.7962649999999911
40
0.5
50
0.00000000
51
90.00000000
0
ARC
8
BLACK
10
210.9994999999999834
20
-104.7962649999999911
40
0.5
50
-90.00000000
51
-0.00000000
0
ARC
8
BLACK
10
197.9994999999999834
20
-104.7962649999999911
40
0.5
50
-180.00000000
51
-90.00000000
0
LINE
8
BLACK
6
CONTINUOUS
10
178.4495000000000005
20
-91.7962649999999911
11
178.4495000000000005
21
-104.7962649999999911
0
LINE
8
BLACK
6
CONTINUOUS
10
192.4495000000000005
20
-104.7962649999999911
11
192.4495000000000005
21
-91.7962649999999911
0
LINE
8
BLACK
6
CONTINUOUS
10
191.9495000000000005
20
-91.2962649999999911
11
178.9495000000000005
21
-91.2962649999999911
0
LINE
8
BLACK
6
CONTINUOUS
10
178.9495000000000005
20
-105.2962649999999911
11
191.9495000000000005
21
-105.2962649999999911
0
ARC
8
BLACK
10
178.9495000000000005
20
-91.7962649999999911
40
0.5
50
90.00000000
51
180.00000000
0
ARC
8
BLACK
10
191.9495000000000005
20
-91.7962649999999911
40
0.5
50
0.00000000
51
90.00000000
0
ARC
8
BLACK
10
191.9495000000000005
20
-104.7962649999999911
40
0.5
50
-90.00000000
51
-0.00000000
0
ARC
8
BLACK
10
178.9495000000000005
20
-104.7962649999999911
40
0.5
50
-180.00000000
51
-90.00000000
0
LINE
8
BLACK
6
CONTINUOUS
10
159.3994999999999891
20
-91.7962649999999911
11
159.3994999999999891
21
-104.7962649999999911
0
LINE
8
BLACK
6
CONTINUOUS
10
173.3994999999999891
20
-104.7962649999999911
11
173.3994999999999891
21
-91.7962649999999911
0
LINE
8
BLACK
6
CONTINUOUS
10
172.8994999999999891
20
-91.2962649999999911
11
159.8994999999999891
21
-91.2962649999999911
0
LINE
8
BLACK
6
CONTINUOUS
10
159.8994999999999891
20
-105.2962649999999911
11
172.8994999999999891
21
-105.2962649999999911
0
ARC
8
BLACK
10
159.8994999999999891
20
-91.7962649999999911
40
0.5
50
90.00000000
51
180.00000000
0
ARC
8
BLACK
10
172.8994999999999891
20
-91.7962649999999911
40
0.5
50
0.00000000
51
90.00000000
0
ARC
8
BLACK
10
172.8994999999999891
20
-104.7962649999999911
40
0.5
50
-90.00000000
51
-0.00000000
0
ARC
8
BLACK
10
159.8994999999999891
20
-104.7962649999999911
40
0.5
50
-180.00000000
51
-90.00000000
0
LINE
8
BLACK
6
CONTINUOUS
10
140.3495000000000061
20
-91.7962649999999911
11
140.3495000000000061
21
-104.7962649999999911
0
LINE
8
BLACK
6
CONTINUOUS
10
154.3495000000000061
20
-104.7962649999999911
11
154.3495000000000061
21
-91.7962649999999911
0
LINE
8
BLACK
6
CONTINUOUS
10
153.8495000000000061
20
-91.2962649999999911
11
140.8495000000000061
21
-91.2962649999999911
0
LINE
8
BLACK
6
CONTINUOUS
10
140.8495000000000061
20
-105.2962649999999911
11
153.8495000000000061
21
-105.2962649999999911
0
ARC
8
BLACK
10
140.8495000000000061
20
-91.7962649999999911
40
0.5
50
90.00000000
51
180.00000000
0
ARC
8
BLACK
10
153.8495000000000061
20
-91.7962649999999911
40
0.5
50
0.00000000
51
90.00000000
0
ARC
8
BLACK
10
153.8495000000000061
20
-104.7962649999999911
40
0.5
50
-90.00000000
51
-0.00000000
0
ARC
8
BLACK
10
140.8495000000000061
20
-104.7962649999999911
40
0.5
50
-180.00000000
51
-90.00000000
0
LINE
8
BLACK
6
CONTINUOUS
10
121.2994999999999948
20
-91.7962649999999911
11
121.2994999999999948
21
-104.7962649999999911
0
LINE
8
BLACK
6
CONTINUOUS
10
135.2994999999999948
20
-104.7962649999999911
11
135.2994999999999948
21
-91.7962649999999911
0
LINE
8
BLACK
6
CONTINUOUS
10
134.7994999999999948
20
-91.2962649999999911
11
121.7994999999999948
21
-91.2962649999999911
0
LINE
8
BLACK
6
CONTINUOUS
10
121.7994999999999948
20
-105.2962649999999911
11
134.7994999999999948
21
-105.2962649999999911
0
ARC
8
BLACK
10
121.7994999999999948
20
-91.7962649999999911
40
0.5
50
90.00000000
51
180.00000000
0
ARC
8
BLACK
10
134.7994999999999948
20
-91.7962649999999911
40
0.5
50
0.00000000
51
90.00000000
0
ARC
8
BLACK
10
134.7994999999999948
20
-104.7962649999999911
40
0.5
50
-90.00000000
51
-0.00000000
0
ARC
8
BLACK
10
121.7994999999999948
20
-104.7962649999999911
40
0.5
50
-180.00000000
51
-90.00000000
0
LINE
8
BLACK
6
CONTINUOUS
10
102.2494999999999976
20
-91.7962649999999911
11
102.2494999999999976
21
-104.7962649999999911
0
LINE
8
BLACK
6
CONTINUOUS
10
116.2494999999999976
20
-104.7962649999999911
11
116.2494999999999976
21
-91.7962649999999911
0
LINE
8
BLACK
6
CONTINUOUS
10
115.7494999999999976
20
-91.2962649999999911
11
102.7494999999999976
21
-91.2962649999999911
0
LINE
8
BLACK
6
CONTINUOUS
10
102.7494999999999976
20
-105.2962649999999911
11
115.7494999999999976
21
-105.2962649999999911
0
ARC
8
BLACK
10
102.7494999999999976
20
-91.7962649999999911
40
0.5
50
90.00000000
51
180.00000000
0
ARC
8
BLACK
10
115.7494999999999976
20
-91.7962649999999911
40
0.5
50
0.00000000
51
90.00000000
0
ARC
8
BLACK
10
115.7494999999999976
20
-104.7962649999999911
40
0.5
50
-90.00000000
51
-0.00000000
0
ARC
8
BLACK
10
102.7494999999999976
20
-104.7962649999999911
40
0.5
50
-180.00000000
51
-90.00000000
0
LINE
8
BLACK
6
CONTINUOUS
10
83.1995000000000005
20
-91.7962649999999911
11
83.1995000000000005
21
-104.7962649999999911
0
LINE
8
BLACK
6
CONTINUOUS
10
97.1995000000000005
20
-104.7962649999999911
11
97.1995000000000005
21
-91.7962649999999911
0
LINE
8
BLACK
6
CONTINUOUS
10
96.6995000000000005
20
-91.2962649999999911
11
83.6995000000000005
21
-91.2962649999999911
0
LINE
8
BLACK
6
CONTINUOUS
10
83.6995000000000005
20
-105.2962649999999911
11
96.6995000000000005
21
-105.2962649999999911
0
ARC
8
BLACK
10
83.6995000000000005
20
-91.7962649999999911
40
0.5
50
90.00000000
51
180.00000000
0
ARC
8
BLACK
10
96.6995000000000005
20
-91.7962649999999911
40
0.5
50
0.00000000
51
90.00000000
0
ARC
8
BLACK
10
96.6995000000000005
20
-104.7962649999999911
40
0.5
50
-90.00000000
51
-0.00000000
0
ARC
8
BLACK
10
83.6995000000000005
20
-104.7962649999999911
40
0.5
50
-180.00000000
51
-90.00000000
0
LINE
8
BLACK
6
CONTINUOUS
10
64.1495000000000033
20
-91.7962649999999911
11
64.1495000000000033
21
-104.7962649999999911
0
LINE
8
BLACK
6
CONTINUOUS
10
78.1495000000000033
20
-104.7962649999999911
11
78.1495000000000033
21
-91.7962649999999911
0
LINE
8
BLACK
6
CONTINUOUS
10
77.6495000000000033
20
-91.2962649999999911
11
64.6495000000000033
21
-91.2962649999999911
0
LINE
8
BLACK
6
CONTINUOUS
10
64.6495000000000033
20
-105.2962649999999911
11
77.6495000000000033
21
-105.2962649999999911
0
ARC
8
BLACK
10
64.6495000000000033
20
-91.7962649999999911
40
0.5
50
90.00000000
51
180.00000000
0
ARC
8
BLACK
10
77.6495000000000033
20
-91.7962649999999911
40
0.5
50
0.00000000
51
90.00000000
0
ARC
8
BLACK
10
77.6495000000000033
20
-104.7962649999999911
40
0.5
50
-90.00000000
51
-0.00000000
0
ARC
8
BLACK
10
64.6495000000000033
20
-104.7962649999999911
40
0.5
50
-180.00000000
51
-90.00000000
0
LINE
8
BLACK
6
CONTINUOUS
10
45.099499999999999
20
-91.7962649999999911
11
45.099499999999999
21
-104.7962649999999911
0
LINE
8
BLACK
6
CONTINUOUS
10
59.099499999999999
20
-104.7962649999999911
11
59.099499999999999
21
-91.7962649999999911
0
LINE
8
BLACK
6
CONTINUOUS
10
58.599499999999999
20
-91.2962649999999911
11
45.599499999999999
21
-91.2962649999999911
0
LINE
8
BLACK
6
CONTINUOUS
10
45.599499999999999
20
-105.2962649999999911
11
58.599499999999999
21
-105.2962649999999911
0
ARC
8
BLACK
10
45.599499999999999
20
-91.7962649999999911
40
0.5
50
90.00000000
51
180.00000000
0
ARC
8
BLACK
10
58.599499999999999
20
-91.7962649999999911
40
0.5
50
0.00000000
51
90.00000000
0
ARC
8
BLACK
10
58.599499999999999
20
-104.7962649999999911
40
0.5
50
-90.00000000
51
-0.00000000
0
ARC
8
BLACK
10
45.599499999999999
20
-104.7962649999999911
40
0.5
50
-180.00000000
51
-90.00000000
0
LINE
8
BLACK
6
CONTINUOUS
10
235.5994999999999777
20
-72.746264999999994
11
235.5994999999999777
21
-85.746264999999994
0
LINE
8
BLACK
6
CONTINUOUS
10
249.5994999999999777
20
-85.746264999999994
11
249.5994999999999777
21
-72.746264999999994
0
LINE
8
BLACK
6
CONTINUOUS
10
249.0994999999999777
20
-72.246264999999994
11
236.0994999999999777
21
-72.246264999999994
0
LINE
8
BLACK
6
CONTINUOUS
10
236.0994999999999777
20
-86.246264999999994
11
249.0994999999999777
21
-86.246264999999994
0
ARC
8
BLACK
10
236.0994999999999777
20
-72.746264999999994
40
0.5
50
90.00000000
51
180.00000000
0
ARC
8
BLACK
10
249.0994999999999777
20
-72.746264999999994
40
0.5
50
0.00000000
51
90.00000000
0
ARC
8
BLACK
10
249.0994999999999777
20
-85.746264999999994
40
0.5
50
-90.00000000
51
-0.00000000
0
ARC
8
BLACK
10
236.0994999999999777
20
-85.746264999999994
40
0.5
50
-180.00000000
51
-90.00000000
0
LINE
8
BLACK
6
CONTINUOUS
10
216.5494999999999948
20
-72.746264999999994
11
216.5494999999999948
21
-85.746264999999994
0
LINE
8
BLACK
6
CONTINUOUS
10
230.5494999999999948
20
-85.746264999999994
11
230.5494999999999948
21
-72.746264999999994
0
LINE
8
BLACK
6
CONTINUOUS
10
230.0494999999999948
20
-72.246264999999994
11
217.0494999999999948
21
-72.246264999999994
0
LINE
8
BLACK
6
CONTINUOUS
10
217.0494999999999948
20
-86.246264999999994
11
230.0494999999999948
21
-86.246264999999994
0
ARC
8
BLACK
10
217.0494999999999948
20
-72.746264999999994
40
0.5
50
90.00000000
51
180.00000000
0
ARC
8
BLACK
10
230.0494999999999948
20
-72.746264999999994
40
0.5
50
0.00000000
51
90.00000000
0
ARC
8
BLACK
10
230.0494999999999948
20
-85.746264999999994
40
0.5
50
-90.00000000
51
-0.00000000
0
ARC
8
BLACK
10
217.0494999999999948
20
-85.746264999999994
40
0.5
50
-180.00000000
51
-90.00000000
0
LINE
8
BLACK
6
CONTINUOUS
10
197.4994999999999834
20
-72.746264999999994
11
197.4994999999999834
21
-85.746264999999994
0
LINE
8
BLACK
6
CONTINUOUS
10
211.4994999999999834
20
-85.746264999999994
11
211.4994999999999834
21
-72.746264999999994
0
LINE
8
BLACK
6
CONTINUOUS
10
210.9994999999999834
20
-72.246264999999994
11
197.9994999999999834
21
-72.246264999999994
0
LINE
8
BLACK
6
CONTINUOUS
10
197.9994999999999834
20
-86.246264999999994
11
210.9994999999999834
21
-86.246264999999994
0
ARC
8
BLACK
10
197.9994999999999834
20
-72.746264999999994
40
0.5
50
90.00000000
51
180.00000000
0
ARC
8
BLACK
10
210.9994999999999834
20
-72.746264999999994
40
0.5
50
0.00000000
51
90.00000000
0
ARC
8
BLACK
10
210.9994999999999834
20
-85.746264999999994
40
0.5
50
-90.00000000
51
-0.00000000
0
ARC
8
BLACK
10
197.9994999999999834
20
-85.746264999999994
40
0.5
50
-180.00000000
51
-90.00000000
0
LINE
8
BLACK
6
CONTINUOUS
10
178.4495000000000005
20
-72.746264999999994
11
178.4495000000000005
21
-85.746264999999994
0
LINE
8
BLACK
6
CONTINUOUS
10
192.4495000000000005
20
-85.746264999999994
11
192.4495000000000005
21
-72.746264999999994
0
LINE
8
BLACK
6
CONTINUOUS
10
191.9495000000000005
20
-72.246264999999994
11
178.9495000000000005
21
-72.246264999999994
0
LINE
8
BLACK
6
CONTINUOUS
10
178.9495000000000005
20
-86.246264999999994
11
191.9495000000000005
21
-86.246264999999994
0
ARC
8
BLACK
10
178.9495000000000005
20
-72.746264999999994
40
0.5
50
90.00000000
51
180.00000000
0
ARC
8
BLACK
10
191.9495000000000005
20
-72.746264999999994
40
0.5
50
0.00000000
51
90.00000000
0
ARC
8
BLACK
10
191.9495000000000005
20
-85.746264999999994
40
0.5
50
-90.00000000
51
-0.00000000
0
ARC
8
BLACK
10
178.9495000000000005
20
-85.746264999999994
40
0.5
50
-180.00000000
51
-90.00000000
0
LINE
8
BLACK
6
CONTINUOUS
10
159.3994999999999891
20
-72.746264999999994
11
159.3994999999999891
21
-85.746264999999994
0
LINE
8
BLACK
6
CONTINUOUS
10
173.3994999999999891
20
-85.746264999999994
11
173.3994999999999891
21
-72.746264999999994
0
LINE
8
BLACK
6
CONTINUOUS
10
172.8994999999999891
20
-72.246264999999994
11
159.8994999999999891
21
-72.246264999999994
0
LINE
8
BLACK
6
CONTINUOUS
10
159.8994999999999891
20
-86.246264999999994
11
172.8994999999999891
21
-86.246264999999994
0
ARC
8
BLACK
10
159.8994999999999891
20
-72.746264999999994
40
0.5
50
90.00000000
51
180.00000000
0
ARC
8
BLACK
10
172.8994999999999891
20
-72.746264999999994
40
0.5
50
0.00000000
51
90.00000000
0
ARC
8
BLACK
10
172.8994999999999891
20
-85.746264999999994
40
0.5
50
-90.00000000
51
-0.00000000
0
ARC
8
BLACK
10
159.8994999999999891
20
-85.746264999999994
40
0.5
50
-180.00000000
51
-90.00000000
0
LINE
8
BLACK
6
CONTINUOUS
10
140.3495000000000061
20
-72.746264999999994
11
140.3495000000000061
21
-85.746264999999994
0
LINE
8
BLACK
6
CONTINUOUS
10
154.3495000000000061
20
-85.746264999999994
11
154.3495000000000061
21
-72.746264999999994
0
LINE
8
BLACK
6
CONTINUOUS
10
153.8495000000000061
20
-72.246264999999994
11
140.8495000000000061
21
-72.246264999999994
0
LINE
8
BLACK
6
CONTINUOUS
10
140.8495000000000061
20
-86.246264999999994
11
153.8495000000000061
21
-86.246264999999994
0
ARC
8
BLACK
10
140.8495000000000061
20
-72.746264999999994
40
0.5
50
90.00000000
51
180.00000000
0
ARC
8
BLACK
10
153.8495000000000061
20
-72.746264999999994
40
0.5
50
0.00000000
51
90.00000000
0
ARC
8
BLACK
10
153.8495000000000061
20
-85.746264999999994
40
0.5
50
-90.00000000
51
-0.00000000
0
ARC
8
BLACK
10
140.8495000000000061
20
-85.746264999999994
40
0.5
50
-180.00000000
51
-90.00000000
0
LINE
8
BLACK
6
CONTINUOUS
10
121.2994999999999948
20
-72.746264999999994
11
121.2994999999999948
21
-85.746264999999994
0
LINE
8
BLACK
6
CONTINUOUS
10
135.2994999999999948
20
-85.746264999999994
11
135.2994999999999948
21
-72.746264999999994
0
LINE
8
BLACK
6
CONTINUOUS
10
134.7994999999999948
20
-72.246264999999994
11
121.7994999999999948
21
-72.246264999999994
0
LINE
8
BLACK
6
CONTINUOUS
10
121.7994999999999948
20
-86.246264999999994
11
134.7994999999999948
21
-86.246264999999994
0
ARC
8
BLACK
10
121.7994999999999948
20
-72.746264999999994
40
0.5
50
90.00000000
51
180.00000000
0
ARC
8
BLACK
10
134.7994999999999948
20
-72.746264999999994
40
0.5
50
0.00000000
51
90.00000000
0
ARC
8
BLACK
10
134.7994999999999948
20
-85.746264999999994
40
0.5
50
-90.00000000
51
-0.00000000
0
ARC
8
BLACK
10
121.7994999999999948
20
-85.746264999999994
40
0.5
50
-180.00000000
51
-90.00000000
0
LINE
8
BLACK
6
CONTINUOUS
10
102.2494999999999976
20
-72.746264999999994
11
102.2494999999999976
21
-85.746264999999994
0
LINE
8
BLACK
6
CONTINUOUS
10
116.2494999999999976
20
-85.746264999999994
11
116.2494999999999976
21
-72.746264999999994
0
LINE
8
BLACK
6
CONTINUOUS
10
115.7494999999999976
20
-72.246264999999994
11
102.7494999999999976
21
-72.246264999999994
0
LINE
8
BLACK
6
CONTINUOUS
10
102.7494999999999976
20
-86.246264999999994
11
115.7494999999999976
21
-86.246264999999994
0
ARC
8
BLACK
10
102.7494999999999976
20
-72.746264999999994
40
0.5
50
90.00000000
51
180.00000000
0
ARC
8
BLACK
10
115.7494999999999976
20
-72.746264999999994
40
0.5
50
0.00000000
51
90.00000000
0
ARC
8
BLACK
10
115.7494999999999976
20
-85.746264999999994
40
0.5
50
-90.00000000
51
-0.00000000
0
ARC
8
BLACK
10
102.7494999999999976
20
-85.746264999999994
40
0.5
50
-180.00000000
51
-90.00000000
0
LINE
8
BLACK
6
CONTINUOUS
10
83.1995000000000005
20
-72.746264999999994
11
83.1995000000000005
21
-85.746264999999994
0
LINE
8
BLACK
6
CONTINUOUS
10
97.1995000000000005
20
-85.746264999999994
11
97.1995000000000005
21
-72.746264999999994
0
LINE
8
BLACK
6
CONTINUOUS
10
96.6995000000000005
20
-72.246264999999994
11
83.6995000000000005
21
-72.246264999999994
0
LINE
8
BLACK
6
CONTINUOUS
10
83.6995000000000005
20
-86.246264999999994
11
96.6995000000000005
21
-86.246264999999994
0
ARC
8
BLACK
10
83.6995000000000005
20
-72.746264999999994
40
0.5
50
90.00000000
51
180.00000000
0
ARC
8
BLACK
10
96.6995000000000005
20
-72.746264999999994
40
0.5
50
0.00000000
51
90.00000000
0
ARC
8
BLACK
10
96.6995000000000005
20
-85.746264999999994
40
0.5
50
-90.00000000
51
-0.00000000
0
ARC
8
BLACK
10
83.6995000000000005
20
-85.746264999999994
40
0.5
50
-180.00000000
51
-90.00000000
0
LINE
8
BLACK
6
CONTINUOUS
10
64.1495000000000033
20
-72.746264999999994
11
64.1495000000000033
21
-85.746264999999994
0
LINE
8
BLACK
6
CONTINUOUS
10
78.1495000000000033
20
-85.746264999999994
11
78.1495000000000033
21
-72.746264999999994
0
LINE
8
BLACK
6
CONTINUOUS
10
77.6495000000000033
20
-72.246264999999994
11
64.6495000000000033
21
-72.246264999999994
0
LINE
8
BLACK
6
CONTINUOUS
10
64.6495000000000033
20
-86.246264999999994
11
77.6495000000000033
21
-86.246264999999994
0
ARC
8
BLACK
10
64.6495000000000033
20
-72.746264999999994
40
0.5
50
90.00000000
51
180.00000000
0
ARC
8
BLACK
10
77.6495000000000033
20
-72.746264999999994
40
0.5
50
0.00000000
51
90.00000000
0
ARC
8
BLACK
10
77.6495000000000033
20
-85.746264999999994
40
0.5
50
-90.00000000
51
-0.00000000
0
ARC
8
BLACK
10
64.6495000000000033
20
-85.746264999999994
40
0.5
50
-180.00000000
51
-90.00000000
0
LINE
8
BLACK
6
CONTINUOUS
10
45.099499999999999
20
-72.746264999999994
11
45.099499999999999
21
-85.746264999999994
0
LINE
8
BLACK
6
CONTINUOUS
10
59.099499999999999
20
-85.746264999999994
11
59.099499999999999
21
-72.746264999999994
0
LINE
8
BLACK
6
CONTINUOUS
10
58.599499999999999
20
-72.246264999999994
11
45.599499999999999
21
-72.246264999999994
0
LINE
8
BLACK
6
CONTINUOUS
10
45.599499999999999
20
-86.246264999999994
11
58.599499999999999
21
-86.246264999999994
0
ARC
8
BLACK
10
45.599499999999999
20
-72.746264999999994
40
0.5
50
90.00000000
51
180.00000000
0
ARC
8
BLACK
10
58.599499999999999
20
-72.746264999999994
40
0.5
50
0.00000000
51
90.00000000
0
ARC
8
BLACK
10
58.599499999999999
20
-85.746264999999994
40
0.5
50
-90.00000000
51
-0.00000000
0
ARC
8
BLACK
10
45.599499999999999
20
-85.746264999999994
40
0.5
50
-180.00000000
51
-90.00000000
0
LINE
8
BLACK
6
CONTINUOUS
10
235.5994999999999777
20
-53.6962649999999968
11
235.5994999999999777
21
-66.6962649999999968
0
LINE
8
BLACK
6
CONTINUOUS
10
249.5994999999999777
20
-66.6962649999999968
11
249.5994999999999777
21
-53.6962649999999968
0
LINE
8
BLACK
6
CONTINUOUS
10
249.0994999999999777
20
-53.1962649999999968
11
236.0994999999999777
21
-53.1962649999999968
0
LINE
8
BLACK
6
CONTINUOUS
10
236.0994999999999777
20
-67.1962649999999968
11
249.0994999999999777
21
-67.1962649999999968
0
ARC
8
BLACK
10
236.0994999999999777
20
-53.6962649999999968
40
0.5
50
90.00000000
51
180.00000000
0
ARC
8
BLACK
10
249.0994999999999777
20
-53.6962649999999968
40
0.5
50
0.00000000
51
90.00000000
0
ARC
8
BLACK
10
249.0994999999999777
20
-66.6962649999999968
40
0.5
50
-90.00000000
51
-0.00000000
0
ARC
8
BLACK
10
236.0994999999999777
20
-66.6962649999999968
40
0.5
50
-180.00000000
51
-90.00000000
0
LINE
8
BLACK
6
CONTINUOUS
10
216.5494999999999948
20
-53.6962649999999968
11
216.5494999999999948
21
-66.6962649999999968
0
LINE
8
BLACK
6
CONTINUOUS
10
230.5494999999999948
20
-66.6962649999999968
11
230.5494999999999948
21
-53.6962649999999968
0
LINE
8
BLACK
6
CONTINUOUS
10
230.0494999999999948
20
-53.1962649999999968
11
217.0494999999999948
21
-53.1962649999999968
0
LINE
8
BLACK
6
CONTINUOUS
10
217.0494999999999948
20
-67.1962649999999968
11
230.0494999999999948
21
-67.1962649999999968
0
ARC
8
BLACK
10
217.0494999999999948
20
-53.6962649999999968
40
0.5
50
90.00000000
51
180.00000000
0
ARC
8
BLACK
10
230.0494999999999948
20
-53.6962649999999968
40
0.5
50
0.00000000
51
90.00000000
0
ARC
8
BLACK
10
230.0494999999999948
20
-66.6962649999999968
40
0.5
50
-90.00000000
51
-0.00000000
0
ARC
8
BLACK
10
217.0494999999999948
20
-66.6962649999999968
40
0.5
50
-180.00000000
51
-90.00000000
0
LINE
8
BLACK
6
CONTINUOUS
10
197.4994999999999834
20
-53.6962649999999968
11
197.4994999999999834
21
-66.6962649999999968
0
LINE
8
BLACK
6
CONTINUOUS
10
211.4994999999999834
20
-66.6962649999999968
11
211.4994999999999834
21
-53.6962649999999968
0
LINE
8
BLACK
6
CONTINUOUS
10
210.9994999999999834
20
-53.1962649999999968
11
197.9994999999999834
21
-53.1962649999999968
0
LINE
8
BLACK
6
CONTINUOUS
10
197.9994999999999834
20
-67.1962649999999968
11
210.9994999999999834
21
-67.1962649999999968
0
ARC
8
BLACK
10
197.9994999999999834
20
-53.6962649999999968
40
0.5
50
90.00000000
51
180.00000000
0
ARC
8
BLACK
10
210.9994999999999834
20
-53.6962649999999968
40
0.5
50
0.00000000
51
90.00000000
0
ARC
8
BLACK
10
210.9994999999999834
20
-66.6962649999999968
40
0.5
50
-90.00000000
51
-0.00000000
0
ARC
8
BLACK
10
197.9994999999999834
20
-66.6962649999999968
40
0.5
50
-180.00000000
51
-90.00000000
0
LINE
8
BLACK
6
CONTINUOUS
10
178.4495000000000005
20
-53.6962649999999968
11
178.4495000000000005
21
-66.6962649999999968
0
LINE
8
BLACK
6
CONTINUOUS
10
192.4495000000000005
20
-66.6962649999999968
11
192.4495000000000005
21
-53.6962649999999968
0
LINE
8
BLACK
6
CONTINUOUS
10
191.9495000000000005
20
-53.1962649999999968
11
178.9495000000000005
21
-53.1962649999999968
0
LINE
8
BLACK
6
CONTINUOUS
10
178.9495000000000005
20
-67.1962649999999968
11
191.9495000000000005
21
-67.1962649999999968
0
ARC
8
BLACK
10
178.9495000000000005
20
-53.6962649999999968
40
0.5
50
90.00000000
51
180.00000000
0
ARC
8
BLACK
10
191.9495000000000005
20
-53.6962649999999968
40
0.5
50
0.00000000
51
90.00000000
0
ARC
8
BLACK
10
191.9495000000000005
20
-66.6962649999999968
40
0.5
50
-90.00000000
51
-0.00000000
0
ARC
8
BLACK
10
178.9495000000000005
20
-66.6962649999999968
40
0.5
50
-180.00000000
51
-90.00000000
0
LINE
8
BLACK
6
CONTINUOUS
10
159.3994999999999891
20
-53.6962649999999968
11
159.3994999999999891
21
-66.6962649999999968
0
LINE
8
BLACK
6
CONTINUOUS
10
173.3994999999999891
20
-66.6962649999999968
11
173.3994999999999891
21
-53.6962649999999968
0
LINE
8
BLACK
6
CONTINUOUS
10
172.8994999999999891
20
-53.1962649999999968
11
159.8994999999999891
21
-53.1962649999999968
0
LINE
8
BLACK
6
CONTINUOUS
10
159.8994999999999891
20
-67.1962649999999968
11
172.8994999999999891
21
-67.1962649999999968
0
ARC
8
BLACK
10
159.8994999999999891
20
-53.6962649999999968
40
0.5
50
90.00000000
51
180.00000000
0
ARC
8
BLACK
10
172.8994999999999891
20
-53.6962649999999968
40
0.5
50
0.00000000
51
90.00000000
0
ARC
8
BLACK
10
172.8994999999999891
20
-66.6962649999999968
40
0.5
50
-90.00000000
51
-0.00000000
0
ARC
8
BLACK
10
159.8994999999999891
20
-66.6962649999999968
40
0.5
50
-180.00000000
51
-90.00000000
0
LINE
8
BLACK
6
CONTINUOUS
10
140.3495000000000061
20
-53.6962649999999968
11
140.3495000000000061
21
-66.6962649999999968
0
LINE
8
BLACK
6
CONTINUOUS
10
154.3495000000000061
20
-66.6962649999999968
11
154.3495000000000061
21
-53.6962649999999968
0
LINE
8
BLACK
6
CONTINUOUS
10
153.8495000000000061
20
-53.1962649999999968
11
140.8495000000000061
21
-53.1962649999999968
0
LINE
8
BLACK
6
CONTINUOUS
10
140.8495000000000061
20
-67.1962649999999968
11
153.8495000000000061
21
-67.1962649999999968
0
ARC
8
BLACK
10
140.8495000000000061
20
-53.6962649999999968
40
0.5
50
90.00000000
51
180.00000000
0
ARC
8
BLACK
10
153.8495000000000061
20
-53.6962649999999968
40
0.5
50
0.00000000
51
90.00000000
0
ARC
8
BLACK
10
153.8495000000000061
20
-66.6962649999999968
40
0.5
50
-90.00000000
51
-0.00000000
0
ARC
8
BLACK
10
140.8495000000000061
20
-66.6962649999999968
40
0.5
50
-180.00000000
51
-90.00000000
0
LINE
8
BLACK
6
CONTINUOUS
10
121.2994999999999948
20
-53.6962649999999968
11
121.2994999999999948
21
-66.6962649999999968
0
LINE
8
BLACK
6
CONTINUOUS
10
135.2994999999999948
20
-66.6962649999999968
11
135.2994999999999948
21
-53.6962649999999968
0
LINE
8
BLACK
6
CONTINUOUS
10
134.7994999999999948
20
-53.1962649999999968
11
121.7994999999999948
21
-53.1962649999999968
0
LINE
8
BLACK
6
CONTINUOUS
10
121.7994999999999948
20
-67.1962649999999968
11
134.7994999999999948
21
-67.1962649999999968
0
ARC
8
BLACK
10
121.7994999999999948
20
-53.6962649999999968
40
0.5
50
90.00000000
51
180.00000000
0
ARC
8
BLACK
10
134.7994999999999948
20
-53.6962649999999968
40
0.5
50
0.00000000
51
90.00000000
0
ARC
8
BLACK
10
134.7994999999999948
20
-66.6962649999999968
40
0.5
50
-90.00000000
51
-0.00000000
0
ARC
8
BLACK
10
121.7994999999999948
20
-66.6962649999999968
40
0.5
50
-180.00000000
51
-90.00000000
0
LINE
8
BLACK
6
CONTINUOUS
10
102.2494999999999976
20
-53.6962649999999968
11
102.2494999999999976
21
-66.6962649999999968
0
LINE
8
BLACK
6
CONTINUOUS
10
116.2494999999999976
20
-66.6962649999999968
11
116.2494999999999976
21
-53.6962649999999968
0
LINE
8
BLACK
6
CONTINUOUS
10
115.7494999999999976
20
-53.1962649999999968
11
102.7494999999999976
21
-53.1962649999999968
0
LINE
8
BLACK
6
CONTINUOUS
10
102.7494999999999976
20
-67.1962649999999968
11
115.7494999999999976
21
-67.1962649999999968
0
ARC
8
BLACK
10
102.7494999999999976
20
-53.6962649999999968
40
0.5
50
90.00000000
51
180.00000000
0
ARC
8
BLACK
10
115.7494999999999976
20
-53.6962649999999968
40
0.5
50
0.00000000
51
90.00000000
0
ARC
8
BLACK
10
115.7494999999999976
20
-66.6962649999999968
40
0.5
50
-90.00000000
51
-0.00000000
0
ARC
8
BLACK
10
102.7494999999999976
20
-66.6962649999999968
40
0.5
50
-180.00000000
51
-90.00000000
0
LINE
8
BLACK
6
CONTINUOUS
10
83.1995000000000005
20
-53.6962649999999968
11
83.1995000000000005
21
-66.6962649999999968
0
LINE
8
BLACK
6
CONTINUOUS
10
97.1995000000000005
20
-66.6962649999999968
11
97.1995000000000005
21
-53.6962649999999968
0
LINE
8
BLACK
6
CONTINUOUS
10
96.6995000000000005
20
-53.1962649999999968
11
83.6995000000000005
21
-53.1962649999999968
0
LINE
8
BLACK
6
CONTINUOUS
10
83.6995000000000005
20
-67.1962649999999968
11
96.6995000000000005
21
-67.1962649999999968
0
ARC
8
BLACK
10
83.6995000000000005
20
-53.6962649999999968
40
0.5
50
90.00000000
51
180.00000000
0
ARC
8
BLACK
10
96.6995000000000005
20
-53.6962649999999968
40
0.5
50
0.00000000
51
90.00000000
0
ARC
8
BLACK
10
96.6995000000000005
20
-66.6962649999999968
40
0.5
50
-90.00000000
51
-0.00000000
0
ARC
8
BLACK
10
83.6995000000000005
20
-66.6962649999999968
40
0.5
50
-180.00000000
51
-90.00000000
0
LINE
8
BLACK
6
CONTINUOUS
10
64.1495000000000033
20
-53.6962649999999968
11
64.1495000000000033
21
-66.6962649999999968
0
LINE
8
BLACK
6
CONTINUOUS
10
78.1495000000000033
20
-66.6962649999999968
11
78.1495000000000033
21
-53.6962649999999968
0
LINE
8
BLACK
6
CONTINUOUS
10
77.6495000000000033
20
-53.1962649999999968
11
64.6495000000000033
21
-53.1962649999999968
0
LINE
8
BLACK
6
CONTINUOUS
10
64.6495000000000033
20
-67.1962649999999968
11
77.6495000000000033
21
-67.1962649999999968
0
ARC
8
BLACK
10
64.6495000000000033
20
-53.6962649999999968
40
0.5
50
90.00000000
51
180.00000000
0
ARC
8
BLACK
10
77.6495000000000033
20
-53.6962649999999968
40
0.5
50
0.00000000
51
90.00000000
0
ARC
8
BLACK
10
77.6495000000000033
20
-66.6962649999999968
40
0.5
50
-90.00000000
51
-0.00000000
0
ARC
8
BLACK
10
64.6495000000000033
20
-66.6962649999999968
40
0.5
50
-180.00000000
51
-90.00000000
0
LINE
8
BLACK
6
CONTINUOUS
10
45.099499999999999
20
-53.6962649999999968
11
45.099499999999999
21
-66.6962649999999968
0
LINE
8
BLACK
6
CONTINUOUS
10
59.099499999999999
20
-66.6962649999999968
11
59.099499999999999
21
-53.6962649999999968
0
LINE
8
BLACK
6
CONTINUOUS
10
58.599499999999999
20
-53.1962649999999968
11
45.599499999999999
21
-53.1962649999999968
0
LINE
8
BLACK
6
CONTINUOUS
10
45.599499999999999
20
-67.1962649999999968
11
58.599499999999999
21
-67.1962649999999968
0
ARC
8
BLACK
10
45.599499999999999
20
-53.6962649999999968
40
0.5
50
90.00000000
51
180.00000000
0
ARC
8
BLACK
10
58.599499999999999
20
-53.6962649999999968
40
0.5
50
0.00000000
51
90.00000000
0
ARC
8
BLACK
10
58.599499999999999
20
-66.6962649999999968
40
0.5
50
-90.00000000
51
-0.00000000
0
ARC
8
BLACK
10
45.599499999999999
20
-66.6962649999999968
40
0.5
50
-180.00000000
51
-90.00000000
0
ARC
8
BLACK
10
92.2994999999999948
20
-124.7462999999999909
40
2.249965
50
-180.00089127
51
-90.00000000
0
LINE
8
BLACK
6
CONTINUOUS
10
119.8395759999999939
20
-110.3462649999999883
11
119.8395759999999939
21
-109.3462649999999883
0
CIRCLE
8
BLACK
10
249.8338749999999777
20
-117.0552649999999915
40
1.1499999999999999
0
LINE
8
BLACK
6
CONTINUOUS
10
223.3994999999999891
20
-109.6962649999999968
11
223.3994999999999891
21
-124.746264999999994
0
LINE
8
BLACK
6
CONTINUOUS
10
150.9395759999999882
20
-109.3462649999999883
11
150.9395759999999882
21
-110.3462649999999883
0
LINE
8
BLACK
6
CONTINUOUS
10
160.3525759999999991
20
-110.3462649999999883
11
160.3525759999999991
21
-109.3462649999999883
0
LINE
8
BLACK
6
CONTINUOUS
10
49.8400759999999963
20
-110.3462649999999883
11
49.8400759999999963
21
-124.3462649999999883
0
ARC
8
BLACK
10
221.6494999999999891
20
-109.6962999999999937
40
1.750035
50
0.00114592
51
90.00000000
0
ARC
8
BLACK
10
45.0745000000000005
20
-53.1962599999999952
40
2.650000000004717
50
-270.00000000
51
-179.99989189
0
LINE
8
BLACK
6
CONTINUOUS
10
153.3525759999999991
20
-109.3462649999999883
11
150.9395759999999882
21
-109.3462649999999883
0
LINE
8
BLACK
6
CONTINUOUS
10
198.4650759999999821
20
-109.3462649999999883
11
191.4650759999999821
21
-109.3462649999999883
0
LINE
8
BLACK
6
CONTINUOUS
10
149.8525759999999991
20
-110.3462649999999883
11
144.8025759999999877
21
-110.3462649999999883
0
LINE
8
BLACK
6
CONTINUOUS
10
244.8150759999999764
20
-110.3462649999999883
11
230.8150759999999764
21
-110.3462649999999883
0
LINE
8
BLACK
6
CONTINUOUS
10
42.4244999999999948
20
-53.1962649999999968
11
42.4244999999999948
21
-124.746264999999994
0
ARC
8
BLACK
10
249.5745000000000005
20
-53.1963000000000008
40
2.6500349999999999
50
0.00075674
51
90.00000000
0
LINE
8
BLACK
6
CONTINUOUS
10
71.2494999999999976
20
-124.746264999999994
11
71.2494999999999976
21
-109.6962649999999968
0
LINE
8
BLACK
6
CONTINUOUS
10
181.815575999999993
20
-110.3462649999999883
11
181.815575999999993
21
-109.3462649999999883
0
LINE
8
BLACK
6
CONTINUOUS
10
63.8400759999999963
20
-124.3462649999999883
11
63.8400759999999963
21
-110.3462649999999883
0
LINE
8
BLACK
6
CONTINUOUS
10
134.3025759999999877
20
-109.3462649999999883
11
134.3025759999999877
21
-110.3462649999999883
0
LINE
8
BLACK
6
CONTINUOUS
10
150.9395759999999882
20
-110.3462649999999883
11
149.8525759999999991
21
-110.3462649999999883
0
LINE
8
BLACK
6
CONTINUOUS
10
162.8775760000000048
20
-110.3462649999999883
11
160.3525759999999991
21
-110.3462649999999883
0
LINE
8
BLACK
6
CONTINUOUS
10
169.8775760000000048
20
-110.3462649999999883
11
169.8775760000000048
21
-109.3462649999999883
0
LINE
8
BLACK
6
CONTINUOUS
10
206.3494999999999777
20
-107.9462649999999968
11
221.6494999999999891
21
-107.9462649999999968
0
ARC
8
BLACK
10
72.9994999999999976
20
-109.6962999999999937
40
1.75000000035
50
90.00000000
51
179.99885408
0
LINE
8
BLACK
6
CONTINUOUS
10
103.2025759999999934
20
-110.3462649999999883
11
103.2025759999999934
21
-109.3462649999999883
0
LINE
8
BLACK
6
CONTINUOUS
10
103.2025759999999934
20
-110.3462649999999883
11
112.8395759999999939
21
-110.3462649999999883
0
LINE
8
BLACK
6
CONTINUOUS
10
143.7155759999999987
20
-110.3462649999999883
11
143.7155759999999987
21
-109.3462649999999883
0
LINE
8
BLACK
6
CONTINUOUS
10
136.7155759999999987
20
-109.3462649999999883
11
134.3025759999999877
21
-109.3462649999999883
0
LINE
8
BLACK
6
CONTINUOUS
10
173.3775760000000048
20
-110.3462649999999883
11
169.8775760000000048
21
-110.3462649999999883
0
LINE
8
BLACK
6
CONTINUOUS
10
131.7775759999999821
20
-109.3462649999999883
11
124.7775759999999963
21
-109.3462649999999883
0
ARC
8
BLACK
10
202.3494999999999777
20
-124.7462999999999909
40
2.2500000002722222
50
-90.00000000
51
0.00089127
0
LINE
8
BLACK
6
CONTINUOUS
10
63.8400759999999963
20
-110.3462649999999883
11
49.8400759999999963
21
-110.3462649999999883
0
LINE
8
BLACK
6
CONTINUOUS
10
92.2994999999999948
20
-126.996264999999994
11
202.3494999999999777
21
-126.996264999999994
0
LINE
8
BLACK
6
CONTINUOUS
10
174.815575999999993
20
-110.3462649999999883
11
173.3775760000000048
21
-110.3462649999999883
0
LINE
8
BLACK
6
CONTINUOUS
10
181.815575999999993
20
-109.3462649999999883
11
174.815575999999993
21
-109.3462649999999883
0
LINE
8
BLACK
6
CONTINUOUS
10
119.8395759999999939
20
-109.3462649999999883
11
112.8395759999999939
21
-109.3462649999999883
0
LINE
8
BLACK
6
CONTINUOUS
10
141.3025759999999877
20
-109.3462649999999883
11
136.7155759999999987
21
-109.3462649999999883
0
LINE
8
BLACK
6
CONTINUOUS
10
143.7155759999999987
20
-109.3462649999999883
11
141.3025759999999877
21
-109.3462649999999883
0
LINE
8
BLACK
6
CONTINUOUS
10
244.8150759999999764
20
-124.3462649999999883
11
244.8150759999999764
21
-110.3462649999999883
0
LINE
8
BLACK
6
CONTINUOUS
10
112.8395759999999939
20
-109.3462649999999883
11
112.8395759999999939
21
-110.3462649999999883
0
LINE
8
BLACK
6
CONTINUOUS
10
103.2025759999999934
20
-109.3462649999999883
11
96.2025759999999934
21
-109.3462649999999883
0
LINE
8
BLACK
6
CONTINUOUS
10
131.7775759999999821
20
-110.3462649999999883
11
131.7775759999999821
21
-109.3462649999999883
0
ARC
8
BLACK
10
44.6744999999999948
20
-124.7462999999999909
40
2.249965
50
-180.00089127
51
-90.00000000
0
LINE
8
BLACK
6
CONTINUOUS
10
230.8150759999999764
20
-124.3462649999999883
11
244.8150759999999764
21
-124.3462649999999883
0
LINE
8
BLACK
6
CONTINUOUS
10
90.0494999999999948
20
-109.6962649999999968
11
90.0494999999999948
21
-124.746264999999994
0
LINE
8
BLACK
6
CONTINUOUS
10
96.2025759999999934
20
-109.3462649999999883
11
96.2025759999999934
21
-110.3462649999999883
0
LINE
8
BLACK
6
CONTINUOUS
10
230.8150759999999764
20
-110.3462649999999883
11
230.8150759999999764
21
-124.3462649999999883
0
LINE
8
BLACK
6
CONTINUOUS
10
201.9650759999999821
20
-110.3462649999999883
11
198.4650759999999821
21
-110.3462649999999883
0
ARC
8
BLACK
10
206.3494999999999777
20
-109.6962999999999937
40
1.75000000035
50
90.00000000
51
179.99885408
0
LINE
8
BLACK
6
CONTINUOUS
10
124.7775759999999963
20
-109.3462649999999883
11
124.7775759999999963
21
-110.3462649999999883
0
LINE
8
BLACK
6
CONTINUOUS
10
92.7025759999999934
20
-110.3462649999999883
11
92.7025759999999934
21
-124.3462649999999883
0
LINE
8
BLACK
6
CONTINUOUS
10
162.8775760000000048
20
-109.3462649999999883
11
162.8775760000000048
21
-110.3462649999999883
0
LINE
8
BLACK
6
CONTINUOUS
10
134.3025759999999877
20
-110.3462649999999883
11
131.7775759999999821
21
-110.3462649999999883
0
LINE
8
BLACK
6
CONTINUOUS
10
198.4650759999999821
20
-110.3462649999999883
11
198.4650759999999821
21
-109.3462649999999883
0
LINE
8
BLACK
6
CONTINUOUS
10
96.2025759999999934
20
-110.3462649999999883
11
92.7025759999999934
21
-110.3462649999999883
0
LINE
8
BLACK
6
CONTINUOUS
10
174.815575999999993
20
-109.3462649999999883
11
174.815575999999993
21
-110.3462649999999883
0
LINE
8
BLACK
6
CONTINUOUS
10
157.9395759999999882
20
-109.3462649999999883
11
153.3525759999999991
21
-109.3462649999999883
0
LINE
8
BLACK
6
CONTINUOUS
10
225.6494999999999891
20
-126.996264999999994
11
249.9744999999999777
21
-126.996264999999994
0
LINE
8
BLACK
6
CONTINUOUS
10
201.9650759999999821
20
-124.3462649999999883
11
201.9650759999999821
21
-110.3462649999999883
0
LINE
8
BLACK
6
CONTINUOUS
10
191.4650759999999821
20
-109.3462649999999883
11
191.4650759999999821
21
-110.3462649999999883
0
CIRCLE
8
BLACK
10
44.8155000000000001
20
-117.0552649999999915
40
1.1499999999999999
0
LINE
8
BLACK
6
CONTINUOUS
10
72.9994999999999976
20
-107.9462649999999968
11
88.2994999999999948
21
-107.9462649999999968
0
ARC
8
BLACK
10
68.9994999999999976
20
-124.7462999999999909
40
2.2500000002722222
50
-90.00000000
51
0.00089127
0
LINE
8
BLACK
6
CONTINUOUS
10
160.3525759999999991
20
-109.3462649999999883
11
157.9395759999999882
21
-109.3462649999999883
0
ARC
8
BLACK
10
249.9744999999999777
20
-124.7462999999999909
40
2.2500000002722222
50
-90.00000000
51
0.00089127
0
LINE
8
BLACK
6
CONTINUOUS
10
169.8775760000000048
20
-109.3462649999999883
11
162.8775760000000048
21
-109.3462649999999883
0
LINE
8
BLACK
6
CONTINUOUS
10
191.4650759999999821
20
-110.3462649999999883
11
188.9400760000000048
21
-110.3462649999999883
0
ARC
8
BLACK
10
88.2994999999999948
20
-109.6962999999999937
40
1.750035
50
0.00114592
51
90.00000000
0
ARC
8
BLACK
10
225.6494999999999891
20
-124.7462999999999909
40
2.249965
50
-180.00089127
51
-90.00000000
0
LINE
8
BLACK
6
CONTINUOUS
10
144.8025759999999877
20
-110.3462649999999883
11
143.7155759999999987
21
-110.3462649999999883
0
LINE
8
BLACK
6
CONTINUOUS
10
121.2775759999999963
20
-110.3462649999999883
11
119.8395759999999939
21
-110.3462649999999883
0
LINE
8
BLACK
6
CONTINUOUS
10
49.8400759999999963
20
-124.3462649999999883
11
63.8400759999999963
21
-124.3462649999999883
0
LINE
8
BLACK
6
CONTINUOUS
10
249.5745000000000005
20
-50.5462649999999982
11
45.0745000000000005
21
-50.5462649999999982
0
LINE
8
BLACK
6
CONTINUOUS
10
92.7025759999999934
20
-124.3462649999999883
11
201.9650759999999821
21
-124.3462649999999883
0
LINE
8
BLACK
6
CONTINUOUS
10
44.6744999999999948
20
-126.996264999999994
11
68.9994999999999976
21
-126.996264999999994
0
LINE
8
BLACK
6
CONTINUOUS
10
204.5994999999999777
20
-124.746264999999994
11
204.5994999999999777
21
-109.6962649999999968
0
LINE
8
BLACK
6
CONTINUOUS
10
124.7775759999999963
20
-110.3462649999999883
11
121.2775759999999963
21
-110.3462649999999883
0
LINE
8
BLACK
6
CONTINUOUS
10
188.9400760000000048
20
-110.3462649999999883
11
181.815575999999993
21
-110.3462649999999883
0
LINE
8
BLACK
6
CONTINUOUS
10
252.2244999999999777
20
-124.746264999999994
11
252.2244999999999777
21
-53.1962649999999968
  0
ENDSEC
  0
EOF
